M48
; DRILL file {KiCad (5.1.5-0)} date 2021 March 10, Wednesday 11:48:31
; FORMAT={3:3/ absolute / metric / suppress leading zeros}
; #@! TF.CreationDate,2021-03-10T11:48:31+01:00
; #@! TF.GenerationSoftware,Kicad,Pcbnew,(5.1.5-0)
FMAT,2
METRIC,TZ
T1C0.600
T2C0.800
T3C0.900
T4C1.000
T5C1.100
T6C3.500
%
G90
G05
T1
X108084Y-82924
X108966Y-70104
X110236Y-94488
X110236Y-100922
X112268Y-63754
X112402Y-82924
X116332Y-57912
X116332Y-59690
X116332Y-61722
X117348Y-93472
X122428Y-89662
X129540Y-57150
X133604Y-63754
X134366Y-111506
X136428Y-81706
X136906Y-67818
X138938Y-81656
X139446Y-111506
X145974Y-59949
X148033Y-56085
X148590Y-111506
X149098Y-90932
X152908Y-111506
X153670Y-108458
X155448Y-88138
X157734Y-108458
X160292Y-86469
X160323Y-56085
X160323Y-61927
X162306Y-63246
X162306Y-91186
X162612Y-107748
X164338Y-66022
X165533Y-104826
X174244Y-99822
X174498Y-87884
X174498Y-89662
X174498Y-91440
X174498Y-93218
X177038Y-101346
X189738Y-101346
X192278Y-101346
X195820Y-110758
X199644Y-110744
X202209Y-110719
X211328Y-65278
X211328Y-65278
X202704Y-101803
X204704Y-101803
T2
X91948Y-59436
X91948Y-67056
X136428Y-72641
X138928Y-72641
X88646Y-59436
X88646Y-67056
X161838Y-96901
X164338Y-96901
X112280Y-91945
X114780Y-91945
X124968Y-66040
X124968Y-73660
X114808Y-77470
X114808Y-85090
X117348Y-77470
X117348Y-85090
X119888Y-77470
X119888Y-85090
X122428Y-77470
X122428Y-85090
X124968Y-77470
X124968Y-85090
X127508Y-77470
X127508Y-85090
X130048Y-77470
X130048Y-85090
X132588Y-77470
X132588Y-85090
X138938Y-77470
X138938Y-85090
X141478Y-77470
X141478Y-85090
X144018Y-77470
X144018Y-85090
X146558Y-77470
X146558Y-85090
X149098Y-77470
X149098Y-85090
X151638Y-77470
X151638Y-85090
X154178Y-77470
X154178Y-85090
X156718Y-77470
X156718Y-85090
X112313Y-72644
X114813Y-72644
X138938Y-96774
X138938Y-104394
X141478Y-96774
X141478Y-104394
X144018Y-96774
X144018Y-104394
X146558Y-96774
X146558Y-104394
X149098Y-96774
X149098Y-104394
X151638Y-96774
X151638Y-104394
X154178Y-96774
X154178Y-104394
X156718Y-96774
X156718Y-104394
X82336Y-90678
X84836Y-90678
X171709Y-62870
X174209Y-62870
X119888Y-66040
X119888Y-73660
X91186Y-90624
X91186Y-95504
X122428Y-53594
X122428Y-56094
X84328Y-71374
X84328Y-78994
X86868Y-71374
X86868Y-78994
X89408Y-71374
X89408Y-78994
X91948Y-71374
X91948Y-78994
X149098Y-66040
X149098Y-73660
X128016Y-53594
X128016Y-61214
X130556Y-53594
X130556Y-61214
X133096Y-53594
X133096Y-61214
X135636Y-53594
X135636Y-61214
X138176Y-53594
X138176Y-61214
X140716Y-53594
X140716Y-61214
X143256Y-53594
X143256Y-61214
X71882Y-70866
X71882Y-78486
X144018Y-66040
X144018Y-73660
X155397Y-66030
X155397Y-73650
X82336Y-95504
X84836Y-95504
X171704Y-69850
X171704Y-85090
X174244Y-69850
X174244Y-85090
X176784Y-69850
X176784Y-85090
X179324Y-69850
X179324Y-85090
X181864Y-69850
X181864Y-85090
X184404Y-69850
X184404Y-85090
X186944Y-69850
X186944Y-85090
X189484Y-69850
X189484Y-85090
X192024Y-69850
X192024Y-85090
X194564Y-69850
X194564Y-85090
X197104Y-69850
X197104Y-85090
X199644Y-69850
X199644Y-85090
X202184Y-69850
X202184Y-85090
X204724Y-69850
X204724Y-85090
X79248Y-70866
X79248Y-78486
X98044Y-71374
X98044Y-73914
X98044Y-76454
X98044Y-78994
X98044Y-81534
X98044Y-84074
X98044Y-86614
X98044Y-89154
X98044Y-91694
X98044Y-94234
X98044Y-96774
X98044Y-99314
X98044Y-101854
X98044Y-104394
X105664Y-71374
X105664Y-73914
X105664Y-76454
X105664Y-78994
X105664Y-81534
X105664Y-84074
X105664Y-86614
X105664Y-89154
X105664Y-91694
X105664Y-94234
X105664Y-96774
X105664Y-99314
X105664Y-101854
X105664Y-104394
X169418Y-96901
X169418Y-104521
X171958Y-96901
X171958Y-104521
X174498Y-96901
X174498Y-104521
X177038Y-96901
X177038Y-104521
X179578Y-96901
X179578Y-104521
X182118Y-96901
X182118Y-104521
X184658Y-96901
X184658Y-104521
X187198Y-96901
X187198Y-104521
X189738Y-96901
X189738Y-104521
X192278Y-96901
X192278Y-104521
X194818Y-96901
X194818Y-104521
X197358Y-96901
X197358Y-104521
X114808Y-96774
X114808Y-104394
X117348Y-96774
X117348Y-104394
X119888Y-96774
X119888Y-104394
X122428Y-96774
X122428Y-104394
X124968Y-96774
X124968Y-104394
X127508Y-96774
X127508Y-104394
X130048Y-96774
X130048Y-104394
X132588Y-96774
X132588Y-104394
X136430Y-91915
X138930Y-91915
T3
X79248Y-64516
X79248Y-67056
X71882Y-64516
X71882Y-67056
T4
X72644Y-83566
X75184Y-83566
X77724Y-83566
X169164Y-57785
X171704Y-57785
X174244Y-57785
T5
X186690Y-55118
X186690Y-57658
X186690Y-60198
T6
X203350Y-57658
T0
M30
