G04 #@! TF.GenerationSoftware,KiCad,Pcbnew,(5.1.5-0)*
G04 #@! TF.CreationDate,2021-03-10T11:48:28+01:00*
G04 #@! TF.ProjectId,Apple1Serial,4170706c-6531-4536-9572-69616c2e6b69,rev?*
G04 #@! TF.SameCoordinates,Original*
G04 #@! TF.FileFunction,Copper,L1,Top*
G04 #@! TF.FilePolarity,Positive*
%FSLAX46Y46*%
G04 Gerber Fmt 4.6, Leading zero omitted, Abs format (unit mm)*
G04 Created by KiCad (PCBNEW (5.1.5-0)) date 2021-03-10 11:48:28*
%MOMM*%
%LPD*%
G04 APERTURE LIST*
%ADD10C,0.150000*%
%ADD11O,1.600000X2.400000*%
%ADD12R,1.600000X2.400000*%
%ADD13O,2.400000X1.600000*%
%ADD14R,2.400000X1.600000*%
%ADD15C,1.600000*%
%ADD16O,1.600000X1.600000*%
%ADD17C,1.200000*%
%ADD18R,1.200000X1.200000*%
%ADD19C,0.100000*%
%ADD20O,2.000000X1.905000*%
%ADD21R,2.000000X1.905000*%
%ADD22O,1.700000X1.700000*%
%ADD23R,1.700000X1.700000*%
%ADD24C,1.800000*%
%ADD25R,1.800000X1.800000*%
%ADD26C,1.500000*%
%ADD27C,0.300000*%
%ADD28C,1.300000*%
G04 APERTURE END LIST*
D10*
X66310571Y-110450380D02*
X66882000Y-110450380D01*
X66596285Y-111450380D02*
X66596285Y-110450380D01*
X67405809Y-110450380D02*
X67596285Y-110450380D01*
X67691523Y-110498000D01*
X67786761Y-110593238D01*
X67834380Y-110783714D01*
X67834380Y-111117047D01*
X67786761Y-111307523D01*
X67691523Y-111402761D01*
X67596285Y-111450380D01*
X67405809Y-111450380D01*
X67310571Y-111402761D01*
X67215333Y-111307523D01*
X67167714Y-111117047D01*
X67167714Y-110783714D01*
X67215333Y-110593238D01*
X67310571Y-110498000D01*
X67405809Y-110450380D01*
X68167714Y-110450380D02*
X68405809Y-111450380D01*
X68596285Y-110736095D01*
X68786761Y-111450380D01*
X69024857Y-110450380D01*
X69358190Y-111164666D02*
X69834380Y-111164666D01*
X69262952Y-111450380D02*
X69596285Y-110450380D01*
X69929619Y-111450380D01*
X70834380Y-111450380D02*
X70501047Y-110974190D01*
X70262952Y-111450380D02*
X70262952Y-110450380D01*
X70643904Y-110450380D01*
X70739142Y-110498000D01*
X70786761Y-110545619D01*
X70834380Y-110640857D01*
X70834380Y-110783714D01*
X70786761Y-110878952D01*
X70739142Y-110926571D01*
X70643904Y-110974190D01*
X70262952Y-110974190D01*
X71262952Y-111450380D02*
X71262952Y-110450380D01*
X71501047Y-110450380D01*
X71643904Y-110498000D01*
X71739142Y-110593238D01*
X71786761Y-110688476D01*
X71834380Y-110878952D01*
X71834380Y-111021809D01*
X71786761Y-111212285D01*
X71739142Y-111307523D01*
X71643904Y-111402761D01*
X71501047Y-111450380D01*
X71262952Y-111450380D01*
X72215333Y-111402761D02*
X72358190Y-111450380D01*
X72596285Y-111450380D01*
X72691523Y-111402761D01*
X72739142Y-111355142D01*
X72786761Y-111259904D01*
X72786761Y-111164666D01*
X72739142Y-111069428D01*
X72691523Y-111021809D01*
X72596285Y-110974190D01*
X72405809Y-110926571D01*
X72310571Y-110878952D01*
X72262952Y-110831333D01*
X72215333Y-110736095D01*
X72215333Y-110640857D01*
X72262952Y-110545619D01*
X72310571Y-110498000D01*
X72405809Y-110450380D01*
X72643904Y-110450380D01*
X72786761Y-110498000D01*
X73977238Y-110926571D02*
X74310571Y-110926571D01*
X74453428Y-111450380D02*
X73977238Y-111450380D01*
X73977238Y-110450380D01*
X74453428Y-110450380D01*
X74882000Y-111450380D02*
X74882000Y-110450380D01*
X75120095Y-110450380D01*
X75262952Y-110498000D01*
X75358190Y-110593238D01*
X75405809Y-110688476D01*
X75453428Y-110878952D01*
X75453428Y-111021809D01*
X75405809Y-111212285D01*
X75358190Y-111307523D01*
X75262952Y-111402761D01*
X75120095Y-111450380D01*
X74882000Y-111450380D01*
X76405809Y-110498000D02*
X76310571Y-110450380D01*
X76167714Y-110450380D01*
X76024857Y-110498000D01*
X75929619Y-110593238D01*
X75882000Y-110688476D01*
X75834380Y-110878952D01*
X75834380Y-111021809D01*
X75882000Y-111212285D01*
X75929619Y-111307523D01*
X76024857Y-111402761D01*
X76167714Y-111450380D01*
X76262952Y-111450380D01*
X76405809Y-111402761D01*
X76453428Y-111355142D01*
X76453428Y-111021809D01*
X76262952Y-111021809D01*
X76882000Y-110926571D02*
X77215333Y-110926571D01*
X77358190Y-111450380D02*
X76882000Y-111450380D01*
X76882000Y-110450380D01*
X77358190Y-110450380D01*
D11*
X128016000Y-53594000D03*
X143256000Y-61214000D03*
X130556000Y-53594000D03*
X140716000Y-61214000D03*
X133096000Y-53594000D03*
X138176000Y-61214000D03*
X135636000Y-53594000D03*
X135636000Y-61214000D03*
X138176000Y-53594000D03*
X133096000Y-61214000D03*
X140716000Y-53594000D03*
X130556000Y-61214000D03*
X143256000Y-53594000D03*
D12*
X128016000Y-61214000D03*
D11*
X84328000Y-71374000D03*
X91948000Y-78994000D03*
X86868000Y-71374000D03*
X89408000Y-78994000D03*
X89408000Y-71374000D03*
X86868000Y-78994000D03*
X91948000Y-71374000D03*
D12*
X84328000Y-78994000D03*
D11*
X169418000Y-96901000D03*
X197358000Y-104521000D03*
X171958000Y-96901000D03*
X194818000Y-104521000D03*
X174498000Y-96901000D03*
X192278000Y-104521000D03*
X177038000Y-96901000D03*
X189738000Y-104521000D03*
X179578000Y-96901000D03*
X187198000Y-104521000D03*
X182118000Y-96901000D03*
X184658000Y-104521000D03*
X184658000Y-96901000D03*
X182118000Y-104521000D03*
X187198000Y-96901000D03*
X179578000Y-104521000D03*
X189738000Y-96901000D03*
X177038000Y-104521000D03*
X192278000Y-96901000D03*
X174498000Y-104521000D03*
X194818000Y-96901000D03*
X171958000Y-104521000D03*
X197358000Y-96901000D03*
D12*
X169418000Y-104521000D03*
D13*
X105664000Y-71374000D03*
X98044000Y-104394000D03*
X105664000Y-73914000D03*
X98044000Y-101854000D03*
X105664000Y-76454000D03*
X98044000Y-99314000D03*
X105664000Y-78994000D03*
X98044000Y-96774000D03*
X105664000Y-81534000D03*
X98044000Y-94234000D03*
X105664000Y-84074000D03*
X98044000Y-91694000D03*
X105664000Y-86614000D03*
X98044000Y-89154000D03*
X105664000Y-89154000D03*
X98044000Y-86614000D03*
X105664000Y-91694000D03*
X98044000Y-84074000D03*
X105664000Y-94234000D03*
X98044000Y-81534000D03*
X105664000Y-96774000D03*
X98044000Y-78994000D03*
X105664000Y-99314000D03*
X98044000Y-76454000D03*
X105664000Y-101854000D03*
X98044000Y-73914000D03*
X105664000Y-104394000D03*
D14*
X98044000Y-71374000D03*
D11*
X171704000Y-69850000D03*
X204724000Y-85090000D03*
X174244000Y-69850000D03*
X202184000Y-85090000D03*
X176784000Y-69850000D03*
X199644000Y-85090000D03*
X179324000Y-69850000D03*
X197104000Y-85090000D03*
X181864000Y-69850000D03*
X194564000Y-85090000D03*
X184404000Y-69850000D03*
X192024000Y-85090000D03*
X186944000Y-69850000D03*
X189484000Y-85090000D03*
X189484000Y-69850000D03*
X186944000Y-85090000D03*
X192024000Y-69850000D03*
X184404000Y-85090000D03*
X194564000Y-69850000D03*
X181864000Y-85090000D03*
X197104000Y-69850000D03*
X179324000Y-85090000D03*
X199644000Y-69850000D03*
X176784000Y-85090000D03*
X202184000Y-69850000D03*
X174244000Y-85090000D03*
X204724000Y-69850000D03*
D12*
X171704000Y-85090000D03*
D11*
X114808000Y-77470000D03*
X132588000Y-85090000D03*
X117348000Y-77470000D03*
X130048000Y-85090000D03*
X119888000Y-77470000D03*
X127508000Y-85090000D03*
X122428000Y-77470000D03*
X124968000Y-85090000D03*
X124968000Y-77470000D03*
X122428000Y-85090000D03*
X127508000Y-77470000D03*
X119888000Y-85090000D03*
X130048000Y-77470000D03*
X117348000Y-85090000D03*
X132588000Y-77470000D03*
D12*
X114808000Y-85090000D03*
D11*
X138938000Y-77470000D03*
X156718000Y-85090000D03*
X141478000Y-77470000D03*
X154178000Y-85090000D03*
X144018000Y-77470000D03*
X151638000Y-85090000D03*
X146558000Y-77470000D03*
X149098000Y-85090000D03*
X149098000Y-77470000D03*
X146558000Y-85090000D03*
X151638000Y-77470000D03*
X144018000Y-85090000D03*
X154178000Y-77470000D03*
X141478000Y-85090000D03*
X156718000Y-77470000D03*
D12*
X138938000Y-85090000D03*
D11*
X114808000Y-96774000D03*
X132588000Y-104394000D03*
X117348000Y-96774000D03*
X130048000Y-104394000D03*
X119888000Y-96774000D03*
X127508000Y-104394000D03*
X122428000Y-96774000D03*
X124968000Y-104394000D03*
X124968000Y-96774000D03*
X122428000Y-104394000D03*
X127508000Y-96774000D03*
X119888000Y-104394000D03*
X130048000Y-96774000D03*
X117348000Y-104394000D03*
X132588000Y-96774000D03*
D12*
X114808000Y-104394000D03*
D11*
X138938000Y-96774000D03*
X156718000Y-104394000D03*
X141478000Y-96774000D03*
X154178000Y-104394000D03*
X144018000Y-96774000D03*
X151638000Y-104394000D03*
X146558000Y-96774000D03*
X149098000Y-104394000D03*
X149098000Y-96774000D03*
X146558000Y-104394000D03*
X151638000Y-96774000D03*
X144018000Y-104394000D03*
X154178000Y-96774000D03*
X141478000Y-104394000D03*
X156718000Y-96774000D03*
D12*
X138938000Y-104394000D03*
D15*
X136430380Y-91914980D03*
X138930380Y-91914980D03*
D16*
X155397200Y-66029840D03*
D15*
X155397200Y-73649840D03*
D17*
X202703680Y-101803200D03*
D18*
X204703680Y-101803200D03*
D15*
X174209080Y-62870080D03*
X171709080Y-62870080D03*
G04 #@! TA.AperFunction,ConnectorPad*
D19*
G36*
X200766965Y-113617563D02*
G01*
X200834771Y-113627621D01*
X200901264Y-113644277D01*
X200965804Y-113667370D01*
X201027771Y-113696678D01*
X201086566Y-113731918D01*
X201141624Y-113772752D01*
X201192414Y-113818786D01*
X201238448Y-113869576D01*
X201279282Y-113924634D01*
X201314522Y-113983429D01*
X201343830Y-114045396D01*
X201366923Y-114109936D01*
X201383579Y-114176429D01*
X201393637Y-114244235D01*
X201397000Y-114312700D01*
X201397000Y-121907300D01*
X201393637Y-121975765D01*
X201383579Y-122043571D01*
X201366923Y-122110064D01*
X201343830Y-122174604D01*
X201314522Y-122236571D01*
X201279282Y-122295366D01*
X201238448Y-122350424D01*
X201192414Y-122401214D01*
X201141624Y-122447248D01*
X201086566Y-122488082D01*
X201027771Y-122523322D01*
X200965804Y-122552630D01*
X200901264Y-122575723D01*
X200834771Y-122592379D01*
X200766965Y-122602437D01*
X200698500Y-122605800D01*
X199301500Y-122605800D01*
X199233035Y-122602437D01*
X199165229Y-122592379D01*
X199098736Y-122575723D01*
X199034196Y-122552630D01*
X198972229Y-122523322D01*
X198913434Y-122488082D01*
X198858376Y-122447248D01*
X198807586Y-122401214D01*
X198761552Y-122350424D01*
X198720718Y-122295366D01*
X198685478Y-122236571D01*
X198656170Y-122174604D01*
X198633077Y-122110064D01*
X198616421Y-122043571D01*
X198606363Y-121975765D01*
X198603000Y-121907300D01*
X198603000Y-114312700D01*
X198606363Y-114244235D01*
X198616421Y-114176429D01*
X198633077Y-114109936D01*
X198656170Y-114045396D01*
X198685478Y-113983429D01*
X198720718Y-113924634D01*
X198761552Y-113869576D01*
X198807586Y-113818786D01*
X198858376Y-113772752D01*
X198913434Y-113731918D01*
X198972229Y-113696678D01*
X199034196Y-113667370D01*
X199098736Y-113644277D01*
X199165229Y-113627621D01*
X199233035Y-113617563D01*
X199301500Y-113614200D01*
X200698500Y-113614200D01*
X200766965Y-113617563D01*
G37*
G04 #@! TD.AperFunction*
G04 #@! TA.AperFunction,ConnectorPad*
G36*
X196806965Y-113617563D02*
G01*
X196874771Y-113627621D01*
X196941264Y-113644277D01*
X197005804Y-113667370D01*
X197067771Y-113696678D01*
X197126566Y-113731918D01*
X197181624Y-113772752D01*
X197232414Y-113818786D01*
X197278448Y-113869576D01*
X197319282Y-113924634D01*
X197354522Y-113983429D01*
X197383830Y-114045396D01*
X197406923Y-114109936D01*
X197423579Y-114176429D01*
X197433637Y-114244235D01*
X197437000Y-114312700D01*
X197437000Y-121907300D01*
X197433637Y-121975765D01*
X197423579Y-122043571D01*
X197406923Y-122110064D01*
X197383830Y-122174604D01*
X197354522Y-122236571D01*
X197319282Y-122295366D01*
X197278448Y-122350424D01*
X197232414Y-122401214D01*
X197181624Y-122447248D01*
X197126566Y-122488082D01*
X197067771Y-122523322D01*
X197005804Y-122552630D01*
X196941264Y-122575723D01*
X196874771Y-122592379D01*
X196806965Y-122602437D01*
X196738500Y-122605800D01*
X195341500Y-122605800D01*
X195273035Y-122602437D01*
X195205229Y-122592379D01*
X195138736Y-122575723D01*
X195074196Y-122552630D01*
X195012229Y-122523322D01*
X194953434Y-122488082D01*
X194898376Y-122447248D01*
X194847586Y-122401214D01*
X194801552Y-122350424D01*
X194760718Y-122295366D01*
X194725478Y-122236571D01*
X194696170Y-122174604D01*
X194673077Y-122110064D01*
X194656421Y-122043571D01*
X194646363Y-121975765D01*
X194643000Y-121907300D01*
X194643000Y-114312700D01*
X194646363Y-114244235D01*
X194656421Y-114176429D01*
X194673077Y-114109936D01*
X194696170Y-114045396D01*
X194725478Y-113983429D01*
X194760718Y-113924634D01*
X194801552Y-113869576D01*
X194847586Y-113818786D01*
X194898376Y-113772752D01*
X194953434Y-113731918D01*
X195012229Y-113696678D01*
X195074196Y-113667370D01*
X195138736Y-113644277D01*
X195205229Y-113627621D01*
X195273035Y-113617563D01*
X195341500Y-113614200D01*
X196738500Y-113614200D01*
X196806965Y-113617563D01*
G37*
G04 #@! TD.AperFunction*
G04 #@! TA.AperFunction,ConnectorPad*
G36*
X192846965Y-113617563D02*
G01*
X192914771Y-113627621D01*
X192981264Y-113644277D01*
X193045804Y-113667370D01*
X193107771Y-113696678D01*
X193166566Y-113731918D01*
X193221624Y-113772752D01*
X193272414Y-113818786D01*
X193318448Y-113869576D01*
X193359282Y-113924634D01*
X193394522Y-113983429D01*
X193423830Y-114045396D01*
X193446923Y-114109936D01*
X193463579Y-114176429D01*
X193473637Y-114244235D01*
X193477000Y-114312700D01*
X193477000Y-121907300D01*
X193473637Y-121975765D01*
X193463579Y-122043571D01*
X193446923Y-122110064D01*
X193423830Y-122174604D01*
X193394522Y-122236571D01*
X193359282Y-122295366D01*
X193318448Y-122350424D01*
X193272414Y-122401214D01*
X193221624Y-122447248D01*
X193166566Y-122488082D01*
X193107771Y-122523322D01*
X193045804Y-122552630D01*
X192981264Y-122575723D01*
X192914771Y-122592379D01*
X192846965Y-122602437D01*
X192778500Y-122605800D01*
X191381500Y-122605800D01*
X191313035Y-122602437D01*
X191245229Y-122592379D01*
X191178736Y-122575723D01*
X191114196Y-122552630D01*
X191052229Y-122523322D01*
X190993434Y-122488082D01*
X190938376Y-122447248D01*
X190887586Y-122401214D01*
X190841552Y-122350424D01*
X190800718Y-122295366D01*
X190765478Y-122236571D01*
X190736170Y-122174604D01*
X190713077Y-122110064D01*
X190696421Y-122043571D01*
X190686363Y-121975765D01*
X190683000Y-121907300D01*
X190683000Y-114312700D01*
X190686363Y-114244235D01*
X190696421Y-114176429D01*
X190713077Y-114109936D01*
X190736170Y-114045396D01*
X190765478Y-113983429D01*
X190800718Y-113924634D01*
X190841552Y-113869576D01*
X190887586Y-113818786D01*
X190938376Y-113772752D01*
X190993434Y-113731918D01*
X191052229Y-113696678D01*
X191114196Y-113667370D01*
X191178736Y-113644277D01*
X191245229Y-113627621D01*
X191313035Y-113617563D01*
X191381500Y-113614200D01*
X192778500Y-113614200D01*
X192846965Y-113617563D01*
G37*
G04 #@! TD.AperFunction*
G04 #@! TA.AperFunction,ConnectorPad*
G36*
X188886965Y-113617563D02*
G01*
X188954771Y-113627621D01*
X189021264Y-113644277D01*
X189085804Y-113667370D01*
X189147771Y-113696678D01*
X189206566Y-113731918D01*
X189261624Y-113772752D01*
X189312414Y-113818786D01*
X189358448Y-113869576D01*
X189399282Y-113924634D01*
X189434522Y-113983429D01*
X189463830Y-114045396D01*
X189486923Y-114109936D01*
X189503579Y-114176429D01*
X189513637Y-114244235D01*
X189517000Y-114312700D01*
X189517000Y-121907300D01*
X189513637Y-121975765D01*
X189503579Y-122043571D01*
X189486923Y-122110064D01*
X189463830Y-122174604D01*
X189434522Y-122236571D01*
X189399282Y-122295366D01*
X189358448Y-122350424D01*
X189312414Y-122401214D01*
X189261624Y-122447248D01*
X189206566Y-122488082D01*
X189147771Y-122523322D01*
X189085804Y-122552630D01*
X189021264Y-122575723D01*
X188954771Y-122592379D01*
X188886965Y-122602437D01*
X188818500Y-122605800D01*
X187421500Y-122605800D01*
X187353035Y-122602437D01*
X187285229Y-122592379D01*
X187218736Y-122575723D01*
X187154196Y-122552630D01*
X187092229Y-122523322D01*
X187033434Y-122488082D01*
X186978376Y-122447248D01*
X186927586Y-122401214D01*
X186881552Y-122350424D01*
X186840718Y-122295366D01*
X186805478Y-122236571D01*
X186776170Y-122174604D01*
X186753077Y-122110064D01*
X186736421Y-122043571D01*
X186726363Y-121975765D01*
X186723000Y-121907300D01*
X186723000Y-114312700D01*
X186726363Y-114244235D01*
X186736421Y-114176429D01*
X186753077Y-114109936D01*
X186776170Y-114045396D01*
X186805478Y-113983429D01*
X186840718Y-113924634D01*
X186881552Y-113869576D01*
X186927586Y-113818786D01*
X186978376Y-113772752D01*
X187033434Y-113731918D01*
X187092229Y-113696678D01*
X187154196Y-113667370D01*
X187218736Y-113644277D01*
X187285229Y-113627621D01*
X187353035Y-113617563D01*
X187421500Y-113614200D01*
X188818500Y-113614200D01*
X188886965Y-113617563D01*
G37*
G04 #@! TD.AperFunction*
G04 #@! TA.AperFunction,ConnectorPad*
G36*
X184926965Y-113617563D02*
G01*
X184994771Y-113627621D01*
X185061264Y-113644277D01*
X185125804Y-113667370D01*
X185187771Y-113696678D01*
X185246566Y-113731918D01*
X185301624Y-113772752D01*
X185352414Y-113818786D01*
X185398448Y-113869576D01*
X185439282Y-113924634D01*
X185474522Y-113983429D01*
X185503830Y-114045396D01*
X185526923Y-114109936D01*
X185543579Y-114176429D01*
X185553637Y-114244235D01*
X185557000Y-114312700D01*
X185557000Y-121907300D01*
X185553637Y-121975765D01*
X185543579Y-122043571D01*
X185526923Y-122110064D01*
X185503830Y-122174604D01*
X185474522Y-122236571D01*
X185439282Y-122295366D01*
X185398448Y-122350424D01*
X185352414Y-122401214D01*
X185301624Y-122447248D01*
X185246566Y-122488082D01*
X185187771Y-122523322D01*
X185125804Y-122552630D01*
X185061264Y-122575723D01*
X184994771Y-122592379D01*
X184926965Y-122602437D01*
X184858500Y-122605800D01*
X183461500Y-122605800D01*
X183393035Y-122602437D01*
X183325229Y-122592379D01*
X183258736Y-122575723D01*
X183194196Y-122552630D01*
X183132229Y-122523322D01*
X183073434Y-122488082D01*
X183018376Y-122447248D01*
X182967586Y-122401214D01*
X182921552Y-122350424D01*
X182880718Y-122295366D01*
X182845478Y-122236571D01*
X182816170Y-122174604D01*
X182793077Y-122110064D01*
X182776421Y-122043571D01*
X182766363Y-121975765D01*
X182763000Y-121907300D01*
X182763000Y-114312700D01*
X182766363Y-114244235D01*
X182776421Y-114176429D01*
X182793077Y-114109936D01*
X182816170Y-114045396D01*
X182845478Y-113983429D01*
X182880718Y-113924634D01*
X182921552Y-113869576D01*
X182967586Y-113818786D01*
X183018376Y-113772752D01*
X183073434Y-113731918D01*
X183132229Y-113696678D01*
X183194196Y-113667370D01*
X183258736Y-113644277D01*
X183325229Y-113627621D01*
X183393035Y-113617563D01*
X183461500Y-113614200D01*
X184858500Y-113614200D01*
X184926965Y-113617563D01*
G37*
G04 #@! TD.AperFunction*
G04 #@! TA.AperFunction,ConnectorPad*
G36*
X180966965Y-113617563D02*
G01*
X181034771Y-113627621D01*
X181101264Y-113644277D01*
X181165804Y-113667370D01*
X181227771Y-113696678D01*
X181286566Y-113731918D01*
X181341624Y-113772752D01*
X181392414Y-113818786D01*
X181438448Y-113869576D01*
X181479282Y-113924634D01*
X181514522Y-113983429D01*
X181543830Y-114045396D01*
X181566923Y-114109936D01*
X181583579Y-114176429D01*
X181593637Y-114244235D01*
X181597000Y-114312700D01*
X181597000Y-121907300D01*
X181593637Y-121975765D01*
X181583579Y-122043571D01*
X181566923Y-122110064D01*
X181543830Y-122174604D01*
X181514522Y-122236571D01*
X181479282Y-122295366D01*
X181438448Y-122350424D01*
X181392414Y-122401214D01*
X181341624Y-122447248D01*
X181286566Y-122488082D01*
X181227771Y-122523322D01*
X181165804Y-122552630D01*
X181101264Y-122575723D01*
X181034771Y-122592379D01*
X180966965Y-122602437D01*
X180898500Y-122605800D01*
X179501500Y-122605800D01*
X179433035Y-122602437D01*
X179365229Y-122592379D01*
X179298736Y-122575723D01*
X179234196Y-122552630D01*
X179172229Y-122523322D01*
X179113434Y-122488082D01*
X179058376Y-122447248D01*
X179007586Y-122401214D01*
X178961552Y-122350424D01*
X178920718Y-122295366D01*
X178885478Y-122236571D01*
X178856170Y-122174604D01*
X178833077Y-122110064D01*
X178816421Y-122043571D01*
X178806363Y-121975765D01*
X178803000Y-121907300D01*
X178803000Y-114312700D01*
X178806363Y-114244235D01*
X178816421Y-114176429D01*
X178833077Y-114109936D01*
X178856170Y-114045396D01*
X178885478Y-113983429D01*
X178920718Y-113924634D01*
X178961552Y-113869576D01*
X179007586Y-113818786D01*
X179058376Y-113772752D01*
X179113434Y-113731918D01*
X179172229Y-113696678D01*
X179234196Y-113667370D01*
X179298736Y-113644277D01*
X179365229Y-113627621D01*
X179433035Y-113617563D01*
X179501500Y-113614200D01*
X180898500Y-113614200D01*
X180966965Y-113617563D01*
G37*
G04 #@! TD.AperFunction*
G04 #@! TA.AperFunction,ConnectorPad*
G36*
X177006965Y-113617563D02*
G01*
X177074771Y-113627621D01*
X177141264Y-113644277D01*
X177205804Y-113667370D01*
X177267771Y-113696678D01*
X177326566Y-113731918D01*
X177381624Y-113772752D01*
X177432414Y-113818786D01*
X177478448Y-113869576D01*
X177519282Y-113924634D01*
X177554522Y-113983429D01*
X177583830Y-114045396D01*
X177606923Y-114109936D01*
X177623579Y-114176429D01*
X177633637Y-114244235D01*
X177637000Y-114312700D01*
X177637000Y-121907300D01*
X177633637Y-121975765D01*
X177623579Y-122043571D01*
X177606923Y-122110064D01*
X177583830Y-122174604D01*
X177554522Y-122236571D01*
X177519282Y-122295366D01*
X177478448Y-122350424D01*
X177432414Y-122401214D01*
X177381624Y-122447248D01*
X177326566Y-122488082D01*
X177267771Y-122523322D01*
X177205804Y-122552630D01*
X177141264Y-122575723D01*
X177074771Y-122592379D01*
X177006965Y-122602437D01*
X176938500Y-122605800D01*
X175541500Y-122605800D01*
X175473035Y-122602437D01*
X175405229Y-122592379D01*
X175338736Y-122575723D01*
X175274196Y-122552630D01*
X175212229Y-122523322D01*
X175153434Y-122488082D01*
X175098376Y-122447248D01*
X175047586Y-122401214D01*
X175001552Y-122350424D01*
X174960718Y-122295366D01*
X174925478Y-122236571D01*
X174896170Y-122174604D01*
X174873077Y-122110064D01*
X174856421Y-122043571D01*
X174846363Y-121975765D01*
X174843000Y-121907300D01*
X174843000Y-114312700D01*
X174846363Y-114244235D01*
X174856421Y-114176429D01*
X174873077Y-114109936D01*
X174896170Y-114045396D01*
X174925478Y-113983429D01*
X174960718Y-113924634D01*
X175001552Y-113869576D01*
X175047586Y-113818786D01*
X175098376Y-113772752D01*
X175153434Y-113731918D01*
X175212229Y-113696678D01*
X175274196Y-113667370D01*
X175338736Y-113644277D01*
X175405229Y-113627621D01*
X175473035Y-113617563D01*
X175541500Y-113614200D01*
X176938500Y-113614200D01*
X177006965Y-113617563D01*
G37*
G04 #@! TD.AperFunction*
G04 #@! TA.AperFunction,ConnectorPad*
G36*
X173046965Y-113617563D02*
G01*
X173114771Y-113627621D01*
X173181264Y-113644277D01*
X173245804Y-113667370D01*
X173307771Y-113696678D01*
X173366566Y-113731918D01*
X173421624Y-113772752D01*
X173472414Y-113818786D01*
X173518448Y-113869576D01*
X173559282Y-113924634D01*
X173594522Y-113983429D01*
X173623830Y-114045396D01*
X173646923Y-114109936D01*
X173663579Y-114176429D01*
X173673637Y-114244235D01*
X173677000Y-114312700D01*
X173677000Y-121907300D01*
X173673637Y-121975765D01*
X173663579Y-122043571D01*
X173646923Y-122110064D01*
X173623830Y-122174604D01*
X173594522Y-122236571D01*
X173559282Y-122295366D01*
X173518448Y-122350424D01*
X173472414Y-122401214D01*
X173421624Y-122447248D01*
X173366566Y-122488082D01*
X173307771Y-122523322D01*
X173245804Y-122552630D01*
X173181264Y-122575723D01*
X173114771Y-122592379D01*
X173046965Y-122602437D01*
X172978500Y-122605800D01*
X171581500Y-122605800D01*
X171513035Y-122602437D01*
X171445229Y-122592379D01*
X171378736Y-122575723D01*
X171314196Y-122552630D01*
X171252229Y-122523322D01*
X171193434Y-122488082D01*
X171138376Y-122447248D01*
X171087586Y-122401214D01*
X171041552Y-122350424D01*
X171000718Y-122295366D01*
X170965478Y-122236571D01*
X170936170Y-122174604D01*
X170913077Y-122110064D01*
X170896421Y-122043571D01*
X170886363Y-121975765D01*
X170883000Y-121907300D01*
X170883000Y-114312700D01*
X170886363Y-114244235D01*
X170896421Y-114176429D01*
X170913077Y-114109936D01*
X170936170Y-114045396D01*
X170965478Y-113983429D01*
X171000718Y-113924634D01*
X171041552Y-113869576D01*
X171087586Y-113818786D01*
X171138376Y-113772752D01*
X171193434Y-113731918D01*
X171252229Y-113696678D01*
X171314196Y-113667370D01*
X171378736Y-113644277D01*
X171445229Y-113627621D01*
X171513035Y-113617563D01*
X171581500Y-113614200D01*
X172978500Y-113614200D01*
X173046965Y-113617563D01*
G37*
G04 #@! TD.AperFunction*
G04 #@! TA.AperFunction,ConnectorPad*
G36*
X169086965Y-113617563D02*
G01*
X169154771Y-113627621D01*
X169221264Y-113644277D01*
X169285804Y-113667370D01*
X169347771Y-113696678D01*
X169406566Y-113731918D01*
X169461624Y-113772752D01*
X169512414Y-113818786D01*
X169558448Y-113869576D01*
X169599282Y-113924634D01*
X169634522Y-113983429D01*
X169663830Y-114045396D01*
X169686923Y-114109936D01*
X169703579Y-114176429D01*
X169713637Y-114244235D01*
X169717000Y-114312700D01*
X169717000Y-121907300D01*
X169713637Y-121975765D01*
X169703579Y-122043571D01*
X169686923Y-122110064D01*
X169663830Y-122174604D01*
X169634522Y-122236571D01*
X169599282Y-122295366D01*
X169558448Y-122350424D01*
X169512414Y-122401214D01*
X169461624Y-122447248D01*
X169406566Y-122488082D01*
X169347771Y-122523322D01*
X169285804Y-122552630D01*
X169221264Y-122575723D01*
X169154771Y-122592379D01*
X169086965Y-122602437D01*
X169018500Y-122605800D01*
X167621500Y-122605800D01*
X167553035Y-122602437D01*
X167485229Y-122592379D01*
X167418736Y-122575723D01*
X167354196Y-122552630D01*
X167292229Y-122523322D01*
X167233434Y-122488082D01*
X167178376Y-122447248D01*
X167127586Y-122401214D01*
X167081552Y-122350424D01*
X167040718Y-122295366D01*
X167005478Y-122236571D01*
X166976170Y-122174604D01*
X166953077Y-122110064D01*
X166936421Y-122043571D01*
X166926363Y-121975765D01*
X166923000Y-121907300D01*
X166923000Y-114312700D01*
X166926363Y-114244235D01*
X166936421Y-114176429D01*
X166953077Y-114109936D01*
X166976170Y-114045396D01*
X167005478Y-113983429D01*
X167040718Y-113924634D01*
X167081552Y-113869576D01*
X167127586Y-113818786D01*
X167178376Y-113772752D01*
X167233434Y-113731918D01*
X167292229Y-113696678D01*
X167354196Y-113667370D01*
X167418736Y-113644277D01*
X167485229Y-113627621D01*
X167553035Y-113617563D01*
X167621500Y-113614200D01*
X169018500Y-113614200D01*
X169086965Y-113617563D01*
G37*
G04 #@! TD.AperFunction*
G04 #@! TA.AperFunction,ConnectorPad*
G36*
X165126965Y-113617563D02*
G01*
X165194771Y-113627621D01*
X165261264Y-113644277D01*
X165325804Y-113667370D01*
X165387771Y-113696678D01*
X165446566Y-113731918D01*
X165501624Y-113772752D01*
X165552414Y-113818786D01*
X165598448Y-113869576D01*
X165639282Y-113924634D01*
X165674522Y-113983429D01*
X165703830Y-114045396D01*
X165726923Y-114109936D01*
X165743579Y-114176429D01*
X165753637Y-114244235D01*
X165757000Y-114312700D01*
X165757000Y-121907300D01*
X165753637Y-121975765D01*
X165743579Y-122043571D01*
X165726923Y-122110064D01*
X165703830Y-122174604D01*
X165674522Y-122236571D01*
X165639282Y-122295366D01*
X165598448Y-122350424D01*
X165552414Y-122401214D01*
X165501624Y-122447248D01*
X165446566Y-122488082D01*
X165387771Y-122523322D01*
X165325804Y-122552630D01*
X165261264Y-122575723D01*
X165194771Y-122592379D01*
X165126965Y-122602437D01*
X165058500Y-122605800D01*
X163661500Y-122605800D01*
X163593035Y-122602437D01*
X163525229Y-122592379D01*
X163458736Y-122575723D01*
X163394196Y-122552630D01*
X163332229Y-122523322D01*
X163273434Y-122488082D01*
X163218376Y-122447248D01*
X163167586Y-122401214D01*
X163121552Y-122350424D01*
X163080718Y-122295366D01*
X163045478Y-122236571D01*
X163016170Y-122174604D01*
X162993077Y-122110064D01*
X162976421Y-122043571D01*
X162966363Y-121975765D01*
X162963000Y-121907300D01*
X162963000Y-114312700D01*
X162966363Y-114244235D01*
X162976421Y-114176429D01*
X162993077Y-114109936D01*
X163016170Y-114045396D01*
X163045478Y-113983429D01*
X163080718Y-113924634D01*
X163121552Y-113869576D01*
X163167586Y-113818786D01*
X163218376Y-113772752D01*
X163273434Y-113731918D01*
X163332229Y-113696678D01*
X163394196Y-113667370D01*
X163458736Y-113644277D01*
X163525229Y-113627621D01*
X163593035Y-113617563D01*
X163661500Y-113614200D01*
X165058500Y-113614200D01*
X165126965Y-113617563D01*
G37*
G04 #@! TD.AperFunction*
G04 #@! TA.AperFunction,ConnectorPad*
G36*
X161166965Y-113617563D02*
G01*
X161234771Y-113627621D01*
X161301264Y-113644277D01*
X161365804Y-113667370D01*
X161427771Y-113696678D01*
X161486566Y-113731918D01*
X161541624Y-113772752D01*
X161592414Y-113818786D01*
X161638448Y-113869576D01*
X161679282Y-113924634D01*
X161714522Y-113983429D01*
X161743830Y-114045396D01*
X161766923Y-114109936D01*
X161783579Y-114176429D01*
X161793637Y-114244235D01*
X161797000Y-114312700D01*
X161797000Y-121907300D01*
X161793637Y-121975765D01*
X161783579Y-122043571D01*
X161766923Y-122110064D01*
X161743830Y-122174604D01*
X161714522Y-122236571D01*
X161679282Y-122295366D01*
X161638448Y-122350424D01*
X161592414Y-122401214D01*
X161541624Y-122447248D01*
X161486566Y-122488082D01*
X161427771Y-122523322D01*
X161365804Y-122552630D01*
X161301264Y-122575723D01*
X161234771Y-122592379D01*
X161166965Y-122602437D01*
X161098500Y-122605800D01*
X159701500Y-122605800D01*
X159633035Y-122602437D01*
X159565229Y-122592379D01*
X159498736Y-122575723D01*
X159434196Y-122552630D01*
X159372229Y-122523322D01*
X159313434Y-122488082D01*
X159258376Y-122447248D01*
X159207586Y-122401214D01*
X159161552Y-122350424D01*
X159120718Y-122295366D01*
X159085478Y-122236571D01*
X159056170Y-122174604D01*
X159033077Y-122110064D01*
X159016421Y-122043571D01*
X159006363Y-121975765D01*
X159003000Y-121907300D01*
X159003000Y-114312700D01*
X159006363Y-114244235D01*
X159016421Y-114176429D01*
X159033077Y-114109936D01*
X159056170Y-114045396D01*
X159085478Y-113983429D01*
X159120718Y-113924634D01*
X159161552Y-113869576D01*
X159207586Y-113818786D01*
X159258376Y-113772752D01*
X159313434Y-113731918D01*
X159372229Y-113696678D01*
X159434196Y-113667370D01*
X159498736Y-113644277D01*
X159565229Y-113627621D01*
X159633035Y-113617563D01*
X159701500Y-113614200D01*
X161098500Y-113614200D01*
X161166965Y-113617563D01*
G37*
G04 #@! TD.AperFunction*
G04 #@! TA.AperFunction,ConnectorPad*
G36*
X157206965Y-113617563D02*
G01*
X157274771Y-113627621D01*
X157341264Y-113644277D01*
X157405804Y-113667370D01*
X157467771Y-113696678D01*
X157526566Y-113731918D01*
X157581624Y-113772752D01*
X157632414Y-113818786D01*
X157678448Y-113869576D01*
X157719282Y-113924634D01*
X157754522Y-113983429D01*
X157783830Y-114045396D01*
X157806923Y-114109936D01*
X157823579Y-114176429D01*
X157833637Y-114244235D01*
X157837000Y-114312700D01*
X157837000Y-121907300D01*
X157833637Y-121975765D01*
X157823579Y-122043571D01*
X157806923Y-122110064D01*
X157783830Y-122174604D01*
X157754522Y-122236571D01*
X157719282Y-122295366D01*
X157678448Y-122350424D01*
X157632414Y-122401214D01*
X157581624Y-122447248D01*
X157526566Y-122488082D01*
X157467771Y-122523322D01*
X157405804Y-122552630D01*
X157341264Y-122575723D01*
X157274771Y-122592379D01*
X157206965Y-122602437D01*
X157138500Y-122605800D01*
X155741500Y-122605800D01*
X155673035Y-122602437D01*
X155605229Y-122592379D01*
X155538736Y-122575723D01*
X155474196Y-122552630D01*
X155412229Y-122523322D01*
X155353434Y-122488082D01*
X155298376Y-122447248D01*
X155247586Y-122401214D01*
X155201552Y-122350424D01*
X155160718Y-122295366D01*
X155125478Y-122236571D01*
X155096170Y-122174604D01*
X155073077Y-122110064D01*
X155056421Y-122043571D01*
X155046363Y-121975765D01*
X155043000Y-121907300D01*
X155043000Y-114312700D01*
X155046363Y-114244235D01*
X155056421Y-114176429D01*
X155073077Y-114109936D01*
X155096170Y-114045396D01*
X155125478Y-113983429D01*
X155160718Y-113924634D01*
X155201552Y-113869576D01*
X155247586Y-113818786D01*
X155298376Y-113772752D01*
X155353434Y-113731918D01*
X155412229Y-113696678D01*
X155474196Y-113667370D01*
X155538736Y-113644277D01*
X155605229Y-113627621D01*
X155673035Y-113617563D01*
X155741500Y-113614200D01*
X157138500Y-113614200D01*
X157206965Y-113617563D01*
G37*
G04 #@! TD.AperFunction*
G04 #@! TA.AperFunction,ConnectorPad*
G36*
X153246965Y-113617563D02*
G01*
X153314771Y-113627621D01*
X153381264Y-113644277D01*
X153445804Y-113667370D01*
X153507771Y-113696678D01*
X153566566Y-113731918D01*
X153621624Y-113772752D01*
X153672414Y-113818786D01*
X153718448Y-113869576D01*
X153759282Y-113924634D01*
X153794522Y-113983429D01*
X153823830Y-114045396D01*
X153846923Y-114109936D01*
X153863579Y-114176429D01*
X153873637Y-114244235D01*
X153877000Y-114312700D01*
X153877000Y-121907300D01*
X153873637Y-121975765D01*
X153863579Y-122043571D01*
X153846923Y-122110064D01*
X153823830Y-122174604D01*
X153794522Y-122236571D01*
X153759282Y-122295366D01*
X153718448Y-122350424D01*
X153672414Y-122401214D01*
X153621624Y-122447248D01*
X153566566Y-122488082D01*
X153507771Y-122523322D01*
X153445804Y-122552630D01*
X153381264Y-122575723D01*
X153314771Y-122592379D01*
X153246965Y-122602437D01*
X153178500Y-122605800D01*
X151781500Y-122605800D01*
X151713035Y-122602437D01*
X151645229Y-122592379D01*
X151578736Y-122575723D01*
X151514196Y-122552630D01*
X151452229Y-122523322D01*
X151393434Y-122488082D01*
X151338376Y-122447248D01*
X151287586Y-122401214D01*
X151241552Y-122350424D01*
X151200718Y-122295366D01*
X151165478Y-122236571D01*
X151136170Y-122174604D01*
X151113077Y-122110064D01*
X151096421Y-122043571D01*
X151086363Y-121975765D01*
X151083000Y-121907300D01*
X151083000Y-114312700D01*
X151086363Y-114244235D01*
X151096421Y-114176429D01*
X151113077Y-114109936D01*
X151136170Y-114045396D01*
X151165478Y-113983429D01*
X151200718Y-113924634D01*
X151241552Y-113869576D01*
X151287586Y-113818786D01*
X151338376Y-113772752D01*
X151393434Y-113731918D01*
X151452229Y-113696678D01*
X151514196Y-113667370D01*
X151578736Y-113644277D01*
X151645229Y-113627621D01*
X151713035Y-113617563D01*
X151781500Y-113614200D01*
X153178500Y-113614200D01*
X153246965Y-113617563D01*
G37*
G04 #@! TD.AperFunction*
G04 #@! TA.AperFunction,ConnectorPad*
G36*
X149286965Y-113617563D02*
G01*
X149354771Y-113627621D01*
X149421264Y-113644277D01*
X149485804Y-113667370D01*
X149547771Y-113696678D01*
X149606566Y-113731918D01*
X149661624Y-113772752D01*
X149712414Y-113818786D01*
X149758448Y-113869576D01*
X149799282Y-113924634D01*
X149834522Y-113983429D01*
X149863830Y-114045396D01*
X149886923Y-114109936D01*
X149903579Y-114176429D01*
X149913637Y-114244235D01*
X149917000Y-114312700D01*
X149917000Y-121907300D01*
X149913637Y-121975765D01*
X149903579Y-122043571D01*
X149886923Y-122110064D01*
X149863830Y-122174604D01*
X149834522Y-122236571D01*
X149799282Y-122295366D01*
X149758448Y-122350424D01*
X149712414Y-122401214D01*
X149661624Y-122447248D01*
X149606566Y-122488082D01*
X149547771Y-122523322D01*
X149485804Y-122552630D01*
X149421264Y-122575723D01*
X149354771Y-122592379D01*
X149286965Y-122602437D01*
X149218500Y-122605800D01*
X147821500Y-122605800D01*
X147753035Y-122602437D01*
X147685229Y-122592379D01*
X147618736Y-122575723D01*
X147554196Y-122552630D01*
X147492229Y-122523322D01*
X147433434Y-122488082D01*
X147378376Y-122447248D01*
X147327586Y-122401214D01*
X147281552Y-122350424D01*
X147240718Y-122295366D01*
X147205478Y-122236571D01*
X147176170Y-122174604D01*
X147153077Y-122110064D01*
X147136421Y-122043571D01*
X147126363Y-121975765D01*
X147123000Y-121907300D01*
X147123000Y-114312700D01*
X147126363Y-114244235D01*
X147136421Y-114176429D01*
X147153077Y-114109936D01*
X147176170Y-114045396D01*
X147205478Y-113983429D01*
X147240718Y-113924634D01*
X147281552Y-113869576D01*
X147327586Y-113818786D01*
X147378376Y-113772752D01*
X147433434Y-113731918D01*
X147492229Y-113696678D01*
X147554196Y-113667370D01*
X147618736Y-113644277D01*
X147685229Y-113627621D01*
X147753035Y-113617563D01*
X147821500Y-113614200D01*
X149218500Y-113614200D01*
X149286965Y-113617563D01*
G37*
G04 #@! TD.AperFunction*
G04 #@! TA.AperFunction,ConnectorPad*
G36*
X145326965Y-113617563D02*
G01*
X145394771Y-113627621D01*
X145461264Y-113644277D01*
X145525804Y-113667370D01*
X145587771Y-113696678D01*
X145646566Y-113731918D01*
X145701624Y-113772752D01*
X145752414Y-113818786D01*
X145798448Y-113869576D01*
X145839282Y-113924634D01*
X145874522Y-113983429D01*
X145903830Y-114045396D01*
X145926923Y-114109936D01*
X145943579Y-114176429D01*
X145953637Y-114244235D01*
X145957000Y-114312700D01*
X145957000Y-121907300D01*
X145953637Y-121975765D01*
X145943579Y-122043571D01*
X145926923Y-122110064D01*
X145903830Y-122174604D01*
X145874522Y-122236571D01*
X145839282Y-122295366D01*
X145798448Y-122350424D01*
X145752414Y-122401214D01*
X145701624Y-122447248D01*
X145646566Y-122488082D01*
X145587771Y-122523322D01*
X145525804Y-122552630D01*
X145461264Y-122575723D01*
X145394771Y-122592379D01*
X145326965Y-122602437D01*
X145258500Y-122605800D01*
X143861500Y-122605800D01*
X143793035Y-122602437D01*
X143725229Y-122592379D01*
X143658736Y-122575723D01*
X143594196Y-122552630D01*
X143532229Y-122523322D01*
X143473434Y-122488082D01*
X143418376Y-122447248D01*
X143367586Y-122401214D01*
X143321552Y-122350424D01*
X143280718Y-122295366D01*
X143245478Y-122236571D01*
X143216170Y-122174604D01*
X143193077Y-122110064D01*
X143176421Y-122043571D01*
X143166363Y-121975765D01*
X143163000Y-121907300D01*
X143163000Y-114312700D01*
X143166363Y-114244235D01*
X143176421Y-114176429D01*
X143193077Y-114109936D01*
X143216170Y-114045396D01*
X143245478Y-113983429D01*
X143280718Y-113924634D01*
X143321552Y-113869576D01*
X143367586Y-113818786D01*
X143418376Y-113772752D01*
X143473434Y-113731918D01*
X143532229Y-113696678D01*
X143594196Y-113667370D01*
X143658736Y-113644277D01*
X143725229Y-113627621D01*
X143793035Y-113617563D01*
X143861500Y-113614200D01*
X145258500Y-113614200D01*
X145326965Y-113617563D01*
G37*
G04 #@! TD.AperFunction*
G04 #@! TA.AperFunction,ConnectorPad*
G36*
X141366965Y-113617563D02*
G01*
X141434771Y-113627621D01*
X141501264Y-113644277D01*
X141565804Y-113667370D01*
X141627771Y-113696678D01*
X141686566Y-113731918D01*
X141741624Y-113772752D01*
X141792414Y-113818786D01*
X141838448Y-113869576D01*
X141879282Y-113924634D01*
X141914522Y-113983429D01*
X141943830Y-114045396D01*
X141966923Y-114109936D01*
X141983579Y-114176429D01*
X141993637Y-114244235D01*
X141997000Y-114312700D01*
X141997000Y-121907300D01*
X141993637Y-121975765D01*
X141983579Y-122043571D01*
X141966923Y-122110064D01*
X141943830Y-122174604D01*
X141914522Y-122236571D01*
X141879282Y-122295366D01*
X141838448Y-122350424D01*
X141792414Y-122401214D01*
X141741624Y-122447248D01*
X141686566Y-122488082D01*
X141627771Y-122523322D01*
X141565804Y-122552630D01*
X141501264Y-122575723D01*
X141434771Y-122592379D01*
X141366965Y-122602437D01*
X141298500Y-122605800D01*
X139901500Y-122605800D01*
X139833035Y-122602437D01*
X139765229Y-122592379D01*
X139698736Y-122575723D01*
X139634196Y-122552630D01*
X139572229Y-122523322D01*
X139513434Y-122488082D01*
X139458376Y-122447248D01*
X139407586Y-122401214D01*
X139361552Y-122350424D01*
X139320718Y-122295366D01*
X139285478Y-122236571D01*
X139256170Y-122174604D01*
X139233077Y-122110064D01*
X139216421Y-122043571D01*
X139206363Y-121975765D01*
X139203000Y-121907300D01*
X139203000Y-114312700D01*
X139206363Y-114244235D01*
X139216421Y-114176429D01*
X139233077Y-114109936D01*
X139256170Y-114045396D01*
X139285478Y-113983429D01*
X139320718Y-113924634D01*
X139361552Y-113869576D01*
X139407586Y-113818786D01*
X139458376Y-113772752D01*
X139513434Y-113731918D01*
X139572229Y-113696678D01*
X139634196Y-113667370D01*
X139698736Y-113644277D01*
X139765229Y-113627621D01*
X139833035Y-113617563D01*
X139901500Y-113614200D01*
X141298500Y-113614200D01*
X141366965Y-113617563D01*
G37*
G04 #@! TD.AperFunction*
G04 #@! TA.AperFunction,ConnectorPad*
G36*
X137406965Y-113617563D02*
G01*
X137474771Y-113627621D01*
X137541264Y-113644277D01*
X137605804Y-113667370D01*
X137667771Y-113696678D01*
X137726566Y-113731918D01*
X137781624Y-113772752D01*
X137832414Y-113818786D01*
X137878448Y-113869576D01*
X137919282Y-113924634D01*
X137954522Y-113983429D01*
X137983830Y-114045396D01*
X138006923Y-114109936D01*
X138023579Y-114176429D01*
X138033637Y-114244235D01*
X138037000Y-114312700D01*
X138037000Y-121907300D01*
X138033637Y-121975765D01*
X138023579Y-122043571D01*
X138006923Y-122110064D01*
X137983830Y-122174604D01*
X137954522Y-122236571D01*
X137919282Y-122295366D01*
X137878448Y-122350424D01*
X137832414Y-122401214D01*
X137781624Y-122447248D01*
X137726566Y-122488082D01*
X137667771Y-122523322D01*
X137605804Y-122552630D01*
X137541264Y-122575723D01*
X137474771Y-122592379D01*
X137406965Y-122602437D01*
X137338500Y-122605800D01*
X135941500Y-122605800D01*
X135873035Y-122602437D01*
X135805229Y-122592379D01*
X135738736Y-122575723D01*
X135674196Y-122552630D01*
X135612229Y-122523322D01*
X135553434Y-122488082D01*
X135498376Y-122447248D01*
X135447586Y-122401214D01*
X135401552Y-122350424D01*
X135360718Y-122295366D01*
X135325478Y-122236571D01*
X135296170Y-122174604D01*
X135273077Y-122110064D01*
X135256421Y-122043571D01*
X135246363Y-121975765D01*
X135243000Y-121907300D01*
X135243000Y-114312700D01*
X135246363Y-114244235D01*
X135256421Y-114176429D01*
X135273077Y-114109936D01*
X135296170Y-114045396D01*
X135325478Y-113983429D01*
X135360718Y-113924634D01*
X135401552Y-113869576D01*
X135447586Y-113818786D01*
X135498376Y-113772752D01*
X135553434Y-113731918D01*
X135612229Y-113696678D01*
X135674196Y-113667370D01*
X135738736Y-113644277D01*
X135805229Y-113627621D01*
X135873035Y-113617563D01*
X135941500Y-113614200D01*
X137338500Y-113614200D01*
X137406965Y-113617563D01*
G37*
G04 #@! TD.AperFunction*
G04 #@! TA.AperFunction,ConnectorPad*
G36*
X133446965Y-113617563D02*
G01*
X133514771Y-113627621D01*
X133581264Y-113644277D01*
X133645804Y-113667370D01*
X133707771Y-113696678D01*
X133766566Y-113731918D01*
X133821624Y-113772752D01*
X133872414Y-113818786D01*
X133918448Y-113869576D01*
X133959282Y-113924634D01*
X133994522Y-113983429D01*
X134023830Y-114045396D01*
X134046923Y-114109936D01*
X134063579Y-114176429D01*
X134073637Y-114244235D01*
X134077000Y-114312700D01*
X134077000Y-121907300D01*
X134073637Y-121975765D01*
X134063579Y-122043571D01*
X134046923Y-122110064D01*
X134023830Y-122174604D01*
X133994522Y-122236571D01*
X133959282Y-122295366D01*
X133918448Y-122350424D01*
X133872414Y-122401214D01*
X133821624Y-122447248D01*
X133766566Y-122488082D01*
X133707771Y-122523322D01*
X133645804Y-122552630D01*
X133581264Y-122575723D01*
X133514771Y-122592379D01*
X133446965Y-122602437D01*
X133378500Y-122605800D01*
X131981500Y-122605800D01*
X131913035Y-122602437D01*
X131845229Y-122592379D01*
X131778736Y-122575723D01*
X131714196Y-122552630D01*
X131652229Y-122523322D01*
X131593434Y-122488082D01*
X131538376Y-122447248D01*
X131487586Y-122401214D01*
X131441552Y-122350424D01*
X131400718Y-122295366D01*
X131365478Y-122236571D01*
X131336170Y-122174604D01*
X131313077Y-122110064D01*
X131296421Y-122043571D01*
X131286363Y-121975765D01*
X131283000Y-121907300D01*
X131283000Y-114312700D01*
X131286363Y-114244235D01*
X131296421Y-114176429D01*
X131313077Y-114109936D01*
X131336170Y-114045396D01*
X131365478Y-113983429D01*
X131400718Y-113924634D01*
X131441552Y-113869576D01*
X131487586Y-113818786D01*
X131538376Y-113772752D01*
X131593434Y-113731918D01*
X131652229Y-113696678D01*
X131714196Y-113667370D01*
X131778736Y-113644277D01*
X131845229Y-113627621D01*
X131913035Y-113617563D01*
X131981500Y-113614200D01*
X133378500Y-113614200D01*
X133446965Y-113617563D01*
G37*
G04 #@! TD.AperFunction*
G04 #@! TA.AperFunction,ConnectorPad*
G36*
X129486965Y-113617563D02*
G01*
X129554771Y-113627621D01*
X129621264Y-113644277D01*
X129685804Y-113667370D01*
X129747771Y-113696678D01*
X129806566Y-113731918D01*
X129861624Y-113772752D01*
X129912414Y-113818786D01*
X129958448Y-113869576D01*
X129999282Y-113924634D01*
X130034522Y-113983429D01*
X130063830Y-114045396D01*
X130086923Y-114109936D01*
X130103579Y-114176429D01*
X130113637Y-114244235D01*
X130117000Y-114312700D01*
X130117000Y-121907300D01*
X130113637Y-121975765D01*
X130103579Y-122043571D01*
X130086923Y-122110064D01*
X130063830Y-122174604D01*
X130034522Y-122236571D01*
X129999282Y-122295366D01*
X129958448Y-122350424D01*
X129912414Y-122401214D01*
X129861624Y-122447248D01*
X129806566Y-122488082D01*
X129747771Y-122523322D01*
X129685804Y-122552630D01*
X129621264Y-122575723D01*
X129554771Y-122592379D01*
X129486965Y-122602437D01*
X129418500Y-122605800D01*
X128021500Y-122605800D01*
X127953035Y-122602437D01*
X127885229Y-122592379D01*
X127818736Y-122575723D01*
X127754196Y-122552630D01*
X127692229Y-122523322D01*
X127633434Y-122488082D01*
X127578376Y-122447248D01*
X127527586Y-122401214D01*
X127481552Y-122350424D01*
X127440718Y-122295366D01*
X127405478Y-122236571D01*
X127376170Y-122174604D01*
X127353077Y-122110064D01*
X127336421Y-122043571D01*
X127326363Y-121975765D01*
X127323000Y-121907300D01*
X127323000Y-114312700D01*
X127326363Y-114244235D01*
X127336421Y-114176429D01*
X127353077Y-114109936D01*
X127376170Y-114045396D01*
X127405478Y-113983429D01*
X127440718Y-113924634D01*
X127481552Y-113869576D01*
X127527586Y-113818786D01*
X127578376Y-113772752D01*
X127633434Y-113731918D01*
X127692229Y-113696678D01*
X127754196Y-113667370D01*
X127818736Y-113644277D01*
X127885229Y-113627621D01*
X127953035Y-113617563D01*
X128021500Y-113614200D01*
X129418500Y-113614200D01*
X129486965Y-113617563D01*
G37*
G04 #@! TD.AperFunction*
G04 #@! TA.AperFunction,ConnectorPad*
G36*
X125526965Y-113617563D02*
G01*
X125594771Y-113627621D01*
X125661264Y-113644277D01*
X125725804Y-113667370D01*
X125787771Y-113696678D01*
X125846566Y-113731918D01*
X125901624Y-113772752D01*
X125952414Y-113818786D01*
X125998448Y-113869576D01*
X126039282Y-113924634D01*
X126074522Y-113983429D01*
X126103830Y-114045396D01*
X126126923Y-114109936D01*
X126143579Y-114176429D01*
X126153637Y-114244235D01*
X126157000Y-114312700D01*
X126157000Y-121907300D01*
X126153637Y-121975765D01*
X126143579Y-122043571D01*
X126126923Y-122110064D01*
X126103830Y-122174604D01*
X126074522Y-122236571D01*
X126039282Y-122295366D01*
X125998448Y-122350424D01*
X125952414Y-122401214D01*
X125901624Y-122447248D01*
X125846566Y-122488082D01*
X125787771Y-122523322D01*
X125725804Y-122552630D01*
X125661264Y-122575723D01*
X125594771Y-122592379D01*
X125526965Y-122602437D01*
X125458500Y-122605800D01*
X124061500Y-122605800D01*
X123993035Y-122602437D01*
X123925229Y-122592379D01*
X123858736Y-122575723D01*
X123794196Y-122552630D01*
X123732229Y-122523322D01*
X123673434Y-122488082D01*
X123618376Y-122447248D01*
X123567586Y-122401214D01*
X123521552Y-122350424D01*
X123480718Y-122295366D01*
X123445478Y-122236571D01*
X123416170Y-122174604D01*
X123393077Y-122110064D01*
X123376421Y-122043571D01*
X123366363Y-121975765D01*
X123363000Y-121907300D01*
X123363000Y-114312700D01*
X123366363Y-114244235D01*
X123376421Y-114176429D01*
X123393077Y-114109936D01*
X123416170Y-114045396D01*
X123445478Y-113983429D01*
X123480718Y-113924634D01*
X123521552Y-113869576D01*
X123567586Y-113818786D01*
X123618376Y-113772752D01*
X123673434Y-113731918D01*
X123732229Y-113696678D01*
X123794196Y-113667370D01*
X123858736Y-113644277D01*
X123925229Y-113627621D01*
X123993035Y-113617563D01*
X124061500Y-113614200D01*
X125458500Y-113614200D01*
X125526965Y-113617563D01*
G37*
G04 #@! TD.AperFunction*
G04 #@! TA.AperFunction,ConnectorPad*
G36*
X121566965Y-113617563D02*
G01*
X121634771Y-113627621D01*
X121701264Y-113644277D01*
X121765804Y-113667370D01*
X121827771Y-113696678D01*
X121886566Y-113731918D01*
X121941624Y-113772752D01*
X121992414Y-113818786D01*
X122038448Y-113869576D01*
X122079282Y-113924634D01*
X122114522Y-113983429D01*
X122143830Y-114045396D01*
X122166923Y-114109936D01*
X122183579Y-114176429D01*
X122193637Y-114244235D01*
X122197000Y-114312700D01*
X122197000Y-121907300D01*
X122193637Y-121975765D01*
X122183579Y-122043571D01*
X122166923Y-122110064D01*
X122143830Y-122174604D01*
X122114522Y-122236571D01*
X122079282Y-122295366D01*
X122038448Y-122350424D01*
X121992414Y-122401214D01*
X121941624Y-122447248D01*
X121886566Y-122488082D01*
X121827771Y-122523322D01*
X121765804Y-122552630D01*
X121701264Y-122575723D01*
X121634771Y-122592379D01*
X121566965Y-122602437D01*
X121498500Y-122605800D01*
X120101500Y-122605800D01*
X120033035Y-122602437D01*
X119965229Y-122592379D01*
X119898736Y-122575723D01*
X119834196Y-122552630D01*
X119772229Y-122523322D01*
X119713434Y-122488082D01*
X119658376Y-122447248D01*
X119607586Y-122401214D01*
X119561552Y-122350424D01*
X119520718Y-122295366D01*
X119485478Y-122236571D01*
X119456170Y-122174604D01*
X119433077Y-122110064D01*
X119416421Y-122043571D01*
X119406363Y-121975765D01*
X119403000Y-121907300D01*
X119403000Y-114312700D01*
X119406363Y-114244235D01*
X119416421Y-114176429D01*
X119433077Y-114109936D01*
X119456170Y-114045396D01*
X119485478Y-113983429D01*
X119520718Y-113924634D01*
X119561552Y-113869576D01*
X119607586Y-113818786D01*
X119658376Y-113772752D01*
X119713434Y-113731918D01*
X119772229Y-113696678D01*
X119834196Y-113667370D01*
X119898736Y-113644277D01*
X119965229Y-113627621D01*
X120033035Y-113617563D01*
X120101500Y-113614200D01*
X121498500Y-113614200D01*
X121566965Y-113617563D01*
G37*
G04 #@! TD.AperFunction*
G04 #@! TA.AperFunction,ConnectorPad*
G36*
X117606965Y-113617563D02*
G01*
X117674771Y-113627621D01*
X117741264Y-113644277D01*
X117805804Y-113667370D01*
X117867771Y-113696678D01*
X117926566Y-113731918D01*
X117981624Y-113772752D01*
X118032414Y-113818786D01*
X118078448Y-113869576D01*
X118119282Y-113924634D01*
X118154522Y-113983429D01*
X118183830Y-114045396D01*
X118206923Y-114109936D01*
X118223579Y-114176429D01*
X118233637Y-114244235D01*
X118237000Y-114312700D01*
X118237000Y-121907300D01*
X118233637Y-121975765D01*
X118223579Y-122043571D01*
X118206923Y-122110064D01*
X118183830Y-122174604D01*
X118154522Y-122236571D01*
X118119282Y-122295366D01*
X118078448Y-122350424D01*
X118032414Y-122401214D01*
X117981624Y-122447248D01*
X117926566Y-122488082D01*
X117867771Y-122523322D01*
X117805804Y-122552630D01*
X117741264Y-122575723D01*
X117674771Y-122592379D01*
X117606965Y-122602437D01*
X117538500Y-122605800D01*
X116141500Y-122605800D01*
X116073035Y-122602437D01*
X116005229Y-122592379D01*
X115938736Y-122575723D01*
X115874196Y-122552630D01*
X115812229Y-122523322D01*
X115753434Y-122488082D01*
X115698376Y-122447248D01*
X115647586Y-122401214D01*
X115601552Y-122350424D01*
X115560718Y-122295366D01*
X115525478Y-122236571D01*
X115496170Y-122174604D01*
X115473077Y-122110064D01*
X115456421Y-122043571D01*
X115446363Y-121975765D01*
X115443000Y-121907300D01*
X115443000Y-114312700D01*
X115446363Y-114244235D01*
X115456421Y-114176429D01*
X115473077Y-114109936D01*
X115496170Y-114045396D01*
X115525478Y-113983429D01*
X115560718Y-113924634D01*
X115601552Y-113869576D01*
X115647586Y-113818786D01*
X115698376Y-113772752D01*
X115753434Y-113731918D01*
X115812229Y-113696678D01*
X115874196Y-113667370D01*
X115938736Y-113644277D01*
X116005229Y-113627621D01*
X116073035Y-113617563D01*
X116141500Y-113614200D01*
X117538500Y-113614200D01*
X117606965Y-113617563D01*
G37*
G04 #@! TD.AperFunction*
D15*
X82336000Y-95504000D03*
X84836000Y-95504000D03*
X82336000Y-90678000D03*
X84836000Y-90678000D03*
X161838000Y-96901000D03*
X164338000Y-96901000D03*
X122428000Y-56094000D03*
X122428000Y-53594000D03*
X112280060Y-91945460D03*
X114780060Y-91945460D03*
X136427840Y-72641460D03*
X138927840Y-72641460D03*
X112313080Y-72644000D03*
X114813080Y-72644000D03*
D20*
X186690000Y-60198000D03*
X186690000Y-57658000D03*
D21*
X186690000Y-55118000D03*
D16*
X71882000Y-70866000D03*
D15*
X71882000Y-78486000D03*
D16*
X79248000Y-70866000D03*
D15*
X79248000Y-78486000D03*
D16*
X91948000Y-67056000D03*
D15*
X91948000Y-59436000D03*
D16*
X88646000Y-67056000D03*
D15*
X88646000Y-59436000D03*
D16*
X124968000Y-66040000D03*
D15*
X124968000Y-73660000D03*
D16*
X119888000Y-66040000D03*
D15*
X119888000Y-73660000D03*
D16*
X149098000Y-66040000D03*
D15*
X149098000Y-73660000D03*
D16*
X144018000Y-66040000D03*
D15*
X144018000Y-73660000D03*
D22*
X174244000Y-57785000D03*
X171704000Y-57785000D03*
D23*
X169164000Y-57785000D03*
D24*
X71882000Y-64516000D03*
D25*
X71882000Y-67056000D03*
D22*
X77724000Y-83566000D03*
X75184000Y-83566000D03*
D23*
X72644000Y-83566000D03*
D24*
X79248000Y-64516000D03*
D25*
X79248000Y-67056000D03*
D26*
X91186000Y-90624000D03*
X91186000Y-95504000D03*
X110236000Y-94488000D03*
X174498000Y-87884000D03*
X110236000Y-100922000D03*
X160323001Y-56084999D03*
X160323001Y-61926999D03*
X148032999Y-56084999D03*
X133604000Y-63754000D03*
X112268000Y-63754000D03*
X108966000Y-70104000D03*
X195820030Y-110757970D03*
X160291780Y-86469220D03*
X136427840Y-81706080D03*
X155448000Y-88138000D03*
X152908000Y-111506000D03*
X148590000Y-111506000D03*
X149098000Y-90932000D03*
X202209400Y-110718600D03*
X138938000Y-81655920D03*
X164338000Y-66022220D03*
X122428000Y-89662000D03*
X108084010Y-82923990D03*
X112402010Y-82923990D03*
X134366000Y-111506000D03*
X139446000Y-111506000D03*
X117348000Y-93472000D03*
X136906000Y-67818000D03*
X192278000Y-101346000D03*
X174244000Y-99822000D03*
X177038000Y-101346000D03*
X189738000Y-101346000D03*
X174498000Y-91440000D03*
X116332000Y-59690000D03*
X174498000Y-89662000D03*
X116332000Y-61722000D03*
X129540000Y-57150000D03*
X116332000Y-57912000D03*
X162306000Y-63246000D03*
X162306000Y-91186000D03*
X153670000Y-108458000D03*
X157734000Y-108458000D03*
X165532500Y-104826500D03*
X162611500Y-107747500D03*
X211328000Y-65278000D03*
X211328000Y-65278000D03*
X199644000Y-110744000D03*
X174498000Y-93218000D03*
X145973800Y-59949080D03*
D27*
X129096001Y-59663999D02*
X122624879Y-59663999D01*
X130556000Y-61123998D02*
X129096001Y-59663999D01*
X122624879Y-59663999D02*
X110236000Y-72052878D01*
X130556000Y-61214000D02*
X130556000Y-61123998D01*
X110236000Y-72052878D02*
X110236000Y-94488000D01*
X110236000Y-94488000D02*
X110236000Y-94488000D01*
X114808000Y-105894000D02*
X116811959Y-107897959D01*
X114808000Y-104394000D02*
X114808000Y-105894000D01*
X138938000Y-105894000D02*
X138938000Y-104394000D01*
X136934041Y-107897959D02*
X138938000Y-105894000D01*
X116811959Y-107897959D02*
X136934041Y-107897959D01*
X173748001Y-87134001D02*
X169684001Y-87134001D01*
X174498000Y-87884000D02*
X173748001Y-87134001D01*
X169684001Y-87134001D02*
X167894000Y-85344000D01*
X167894000Y-85344000D02*
X167894000Y-64262000D01*
X167894000Y-64262000D02*
X161290000Y-57658000D01*
X130556000Y-59714000D02*
X130556000Y-61214000D01*
X132612000Y-57658000D02*
X130556000Y-59714000D01*
X161290000Y-57658000D02*
X132612000Y-57658000D01*
X110236000Y-100922000D02*
X113708000Y-104394000D01*
X113708000Y-104394000D02*
X114808000Y-104394000D01*
X151638000Y-96774000D02*
X151638000Y-91694000D01*
X153027990Y-76593651D02*
X154183641Y-75438000D01*
X153027990Y-90304010D02*
X153027990Y-76593651D01*
X151638000Y-91694000D02*
X153027990Y-90304010D01*
X156186000Y-75438000D02*
X156718000Y-75970000D01*
X156718000Y-75970000D02*
X156718000Y-77470000D01*
X154183641Y-75438000D02*
X156186000Y-75438000D01*
X151638000Y-98274000D02*
X151638000Y-96774000D01*
X152424000Y-99060000D02*
X151638000Y-98274000D01*
X160274000Y-103977120D02*
X155356880Y-99060000D01*
X160274000Y-108204000D02*
X160274000Y-103977120D01*
X158665999Y-109812001D02*
X160274000Y-108204000D01*
X158665999Y-109897999D02*
X158665999Y-109812001D01*
X114606617Y-109897999D02*
X158665999Y-109897999D01*
X109102618Y-104394000D02*
X114606617Y-109897999D01*
X155356880Y-99060000D02*
X152424000Y-99060000D01*
X105664000Y-104394000D02*
X109102618Y-104394000D01*
D28*
X192080000Y-118110000D02*
X192080000Y-114498000D01*
X205740000Y-65278000D02*
X187706000Y-65278000D01*
X204724000Y-85090000D02*
X204724000Y-82590000D01*
X208280000Y-67818000D02*
X205740000Y-65278000D01*
X204724000Y-82590000D02*
X208280000Y-79034000D01*
X180086000Y-57658000D02*
X186690000Y-57658000D01*
X179832000Y-57404000D02*
X180086000Y-57658000D01*
D27*
X186944000Y-71350000D02*
X186944000Y-69850000D01*
X187730000Y-72136000D02*
X186944000Y-71350000D01*
X208280000Y-72136000D02*
X187730000Y-72136000D01*
D28*
X208280000Y-79034000D02*
X208280000Y-72136000D01*
X208280000Y-72136000D02*
X208280000Y-67818000D01*
D27*
X156718000Y-105894000D02*
X156186000Y-106426000D01*
X156718000Y-104394000D02*
X156718000Y-105894000D01*
X151638000Y-105894000D02*
X151638000Y-104394000D01*
X152170000Y-106426000D02*
X151638000Y-105894000D01*
X156186000Y-106426000D02*
X152170000Y-106426000D01*
D28*
X103164000Y-86614000D02*
X105664000Y-86614000D01*
X103084000Y-86614000D02*
X103164000Y-86614000D01*
X100544000Y-89154000D02*
X103084000Y-86614000D01*
X98044000Y-89154000D02*
X100544000Y-89154000D01*
X148032999Y-56084999D02*
X148032999Y-56084999D01*
X160323001Y-56084999D02*
X148032999Y-56084999D01*
D27*
X130048000Y-95274000D02*
X130048000Y-96774000D01*
X133374000Y-91948000D02*
X130048000Y-95274000D01*
X136184000Y-91948000D02*
X133374000Y-91948000D01*
X132588000Y-104394000D02*
X132588000Y-104794000D01*
X127508000Y-104394000D02*
X127508000Y-104794000D01*
D28*
X112268000Y-63754000D02*
X112268000Y-66802000D01*
X112268000Y-66802000D02*
X108966000Y-70104000D01*
X108966000Y-70104000D02*
X108966000Y-70104000D01*
D27*
X132588000Y-105894000D02*
X132056000Y-106426000D01*
X132588000Y-104394000D02*
X132588000Y-105894000D01*
X127508000Y-105894000D02*
X127508000Y-104394000D01*
X128040000Y-106426000D02*
X127508000Y-105894000D01*
X132056000Y-106426000D02*
X128040000Y-106426000D01*
X128040000Y-106426000D02*
X120396000Y-106426000D01*
X119888000Y-105918000D02*
X119888000Y-104394000D01*
X120396000Y-106426000D02*
X119888000Y-105918000D01*
D28*
X119634000Y-51816000D02*
X121158000Y-50292000D01*
X148032999Y-54052999D02*
X148032999Y-56084999D01*
X119634000Y-54431370D02*
X119634000Y-51816000D01*
X144272000Y-50292000D02*
X148032999Y-54052999D01*
X121158000Y-50292000D02*
X144272000Y-50292000D01*
X121296630Y-56094000D02*
X119634000Y-54431370D01*
X122428000Y-56094000D02*
X121296630Y-56094000D01*
X185082180Y-62654180D02*
X179832000Y-57404000D01*
X195025010Y-111552990D02*
X195820030Y-110757970D01*
X192080000Y-114498000D02*
X195025010Y-111552990D01*
X195025010Y-111552990D02*
X195654930Y-110923070D01*
X185298080Y-62870080D02*
X174209080Y-62870080D01*
X185567320Y-63139320D02*
X185298080Y-62870080D01*
X187706000Y-65278000D02*
X185567320Y-63139320D01*
X185567320Y-63139320D02*
X185082180Y-62654180D01*
X160323001Y-95386001D02*
X161838000Y-96901000D01*
X160323001Y-84985119D02*
X160218120Y-85090000D01*
X160218120Y-85090000D02*
X156718000Y-85090000D01*
X160323001Y-61926999D02*
X160323001Y-84985119D01*
X160323001Y-84985119D02*
X160323001Y-95386001D01*
X136430380Y-102651620D02*
X134688000Y-104394000D01*
X134688000Y-104394000D02*
X132588000Y-104394000D01*
X136430380Y-91914980D02*
X136430380Y-102651620D01*
X136427840Y-72641460D02*
X136427840Y-81234920D01*
X136427840Y-81706080D02*
X136427840Y-81706080D01*
X136427840Y-81706080D02*
X136427840Y-81234920D01*
X163278820Y-53129180D02*
X160323001Y-56084999D01*
X175557180Y-53129180D02*
X163278820Y-53129180D01*
X179832000Y-57404000D02*
X175557180Y-53129180D01*
X133604000Y-69817620D02*
X136427840Y-72641460D01*
X133604000Y-69321680D02*
X133604000Y-69817620D01*
X133604000Y-63754000D02*
X133604000Y-69321680D01*
D27*
X98044000Y-99314000D02*
X98444000Y-99314000D01*
X101854000Y-104902000D02*
X101854000Y-101624000D01*
X107357999Y-110405999D02*
X101854000Y-104902000D01*
X160774010Y-108497108D02*
X158865119Y-110405999D01*
X154178000Y-97174000D02*
X160774010Y-103770010D01*
X158865119Y-110405999D02*
X107357999Y-110405999D01*
X160774010Y-103770010D02*
X160774010Y-108497108D01*
X99544000Y-99314000D02*
X98044000Y-99314000D01*
X101854000Y-101624000D02*
X99544000Y-99314000D01*
X154178000Y-96774000D02*
X154178000Y-97174000D01*
X141478000Y-102894000D02*
X142867990Y-101504010D01*
X142867990Y-101504010D02*
X142867990Y-88780010D01*
X141478000Y-104394000D02*
X141478000Y-102894000D01*
X144018000Y-87630000D02*
X144018000Y-85090000D01*
X142867990Y-88780010D02*
X144018000Y-87630000D01*
X108458000Y-98068000D02*
X108458000Y-101573430D01*
X107164000Y-96774000D02*
X108458000Y-98068000D01*
X105664000Y-96774000D02*
X107164000Y-96774000D01*
X108458000Y-101573430D02*
X115282539Y-108397969D01*
X141478000Y-105918000D02*
X139446000Y-107950000D01*
X141478000Y-104394000D02*
X141478000Y-105918000D01*
X139446000Y-107950000D02*
X138998031Y-108397969D01*
X115282539Y-108397969D02*
X138998031Y-108397969D01*
X155328010Y-93884010D02*
X155328010Y-80652010D01*
X156718000Y-95274000D02*
X155328010Y-93884010D01*
X156718000Y-96774000D02*
X156718000Y-95274000D01*
X154178000Y-79502000D02*
X154178000Y-77470000D01*
X155328010Y-80652010D02*
X154178000Y-79502000D01*
X148520000Y-118110000D02*
X148520000Y-113862000D01*
X148520000Y-113614200D02*
X150882200Y-111252000D01*
X148520000Y-118110000D02*
X148520000Y-113614200D01*
X150882200Y-111252000D02*
X152908000Y-111252000D01*
X152908000Y-111252000D02*
X152908000Y-111252000D01*
X154178000Y-104794000D02*
X154178000Y-104394000D01*
X146558000Y-86590000D02*
X146558000Y-85090000D01*
X150248010Y-90280010D02*
X146558000Y-86590000D01*
X150248010Y-98964010D02*
X150248010Y-90280010D01*
X154178000Y-102894000D02*
X150248010Y-98964010D01*
X154178000Y-104394000D02*
X154178000Y-102894000D01*
X144560000Y-118110000D02*
X144560000Y-113614200D01*
X146668200Y-111506000D02*
X148590000Y-111506000D01*
X144560000Y-113614200D02*
X146668200Y-111506000D01*
X145168010Y-99956010D02*
X144018000Y-98806000D01*
X145168010Y-105270349D02*
X145168010Y-99956010D01*
X144018000Y-98806000D02*
X144018000Y-96774000D01*
X115020837Y-108897979D02*
X141540380Y-108897979D01*
X141540380Y-108897979D02*
X145168010Y-105270349D01*
X114808000Y-108685142D02*
X115020837Y-108897979D01*
X114808000Y-108685142D02*
X114808000Y-108630550D01*
X108031450Y-101854000D02*
X105664000Y-101854000D01*
X114808000Y-108630550D02*
X108031450Y-101854000D01*
X149098000Y-83590000D02*
X149098000Y-85090000D01*
X148820000Y-83312000D02*
X149098000Y-83590000D01*
X146309641Y-83312000D02*
X148820000Y-83312000D01*
X145407990Y-84213651D02*
X146309641Y-83312000D01*
X145407990Y-86147110D02*
X145407990Y-84213651D01*
X147947990Y-102843990D02*
X147947990Y-88687110D01*
X147947990Y-88687110D02*
X145407990Y-86147110D01*
X149098000Y-103994000D02*
X147947990Y-102843990D01*
X149098000Y-104394000D02*
X149098000Y-103994000D01*
X104140000Y-99314000D02*
X105664000Y-99314000D01*
X114813727Y-109397989D02*
X108659728Y-103243990D01*
X108659728Y-103243990D02*
X104259990Y-103243990D01*
X104259990Y-103243990D02*
X103632000Y-102616000D01*
X103632000Y-102616000D02*
X103632000Y-99822000D01*
X103632000Y-99822000D02*
X104140000Y-99314000D01*
X145618011Y-109397989D02*
X145465989Y-109397989D01*
X149098000Y-105918000D02*
X145618011Y-109397989D01*
X145465989Y-109397989D02*
X114813727Y-109397989D01*
X149098000Y-104394000D02*
X149098000Y-105918000D01*
X149098000Y-90932000D02*
X149098000Y-96774000D01*
X134874000Y-77216000D02*
X134874000Y-87884000D01*
X128016000Y-70358000D02*
X134874000Y-77216000D01*
X128016000Y-61214000D02*
X128016000Y-70358000D01*
X137780379Y-92676379D02*
X141478000Y-96374000D01*
X141478000Y-96374000D02*
X141478000Y-96774000D01*
X137780379Y-90790379D02*
X137780379Y-92676379D01*
X134874000Y-87884000D02*
X137780379Y-90790379D01*
X117348000Y-95274000D02*
X117348000Y-96774000D01*
X116247999Y-94173999D02*
X117348000Y-95274000D01*
X110903999Y-86367397D02*
X116247999Y-91711397D01*
X110903999Y-72091999D02*
X110903999Y-86367397D01*
X116247999Y-91711397D02*
X116247999Y-94173999D01*
X121781998Y-61214000D02*
X110903999Y-72091999D01*
X128016000Y-61214000D02*
X121781998Y-61214000D01*
D28*
X200000000Y-118110000D02*
X200000000Y-114706000D01*
X200000000Y-114706000D02*
X200152000Y-114554000D01*
X200152000Y-114554000D02*
X200152000Y-112776000D01*
X164338000Y-96901000D02*
X169418000Y-96901000D01*
X200152000Y-112776000D02*
X202209400Y-110718600D01*
X164338000Y-96901000D02*
X164338000Y-66022220D01*
X114780060Y-96746060D02*
X114808000Y-96774000D01*
X114780060Y-91945460D02*
X114780060Y-96746060D01*
X138927840Y-77459840D02*
X138938000Y-77470000D01*
X138927840Y-72641460D02*
X138927840Y-77459840D01*
X138938000Y-77470000D02*
X138938000Y-81655920D01*
X138938000Y-81655920D02*
X138938000Y-81655920D01*
D27*
X124968000Y-96774000D02*
X124968000Y-90170000D01*
X127508000Y-87630000D02*
X127508000Y-85090000D01*
X124968000Y-90170000D02*
X127508000Y-87630000D01*
X121277990Y-94591130D02*
X122428000Y-93441120D01*
X121277990Y-97650349D02*
X121277990Y-94591130D01*
X124968000Y-101340359D02*
X121277990Y-97650349D01*
X124968000Y-104394000D02*
X124968000Y-101340359D01*
X122428000Y-93441120D02*
X122428000Y-89662000D01*
X122428000Y-89662000D02*
X122428000Y-89662000D01*
X119888000Y-95274000D02*
X121277990Y-93884010D01*
X121277990Y-84213651D02*
X122433641Y-83058000D01*
X121277990Y-93884010D02*
X121277990Y-84213651D01*
X119888000Y-96774000D02*
X119888000Y-95274000D01*
X129516000Y-83058000D02*
X130048000Y-83590000D01*
X129381990Y-82923990D02*
X130048000Y-83590000D01*
X130048000Y-83590000D02*
X130048000Y-85090000D01*
X103473990Y-82923990D02*
X108084010Y-82923990D01*
X99544000Y-78994000D02*
X103473990Y-82923990D01*
X98044000Y-78994000D02*
X99544000Y-78994000D01*
X112402010Y-82923990D02*
X129381990Y-82923990D01*
X123578010Y-97650349D02*
X123578010Y-88526010D01*
X130048000Y-104120339D02*
X123578010Y-97650349D01*
X130048000Y-104394000D02*
X130048000Y-104120339D01*
X122428000Y-87376000D02*
X122428000Y-85090000D01*
X123578010Y-88526010D02*
X122428000Y-87376000D01*
X136640000Y-118110000D02*
X136640000Y-114058000D01*
X136640000Y-114058000D02*
X136652000Y-114046000D01*
X136652000Y-114046000D02*
X136640000Y-113804000D01*
X136640000Y-118110000D02*
X136640000Y-113550000D01*
X136640000Y-113550000D02*
X134366000Y-111276000D01*
X134366000Y-111276000D02*
X134366000Y-110998000D01*
X134366000Y-111276000D02*
X134366000Y-111276000D01*
X140600000Y-118110000D02*
X140600000Y-113908000D01*
X140600000Y-113908000D02*
X139446000Y-112754000D01*
X139446000Y-112754000D02*
X139446000Y-111252000D01*
X139446000Y-111252000D02*
X139446000Y-111252000D01*
X117348000Y-104394000D02*
X117348000Y-102108000D01*
X118737990Y-100718010D02*
X118737990Y-88526010D01*
X117348000Y-102108000D02*
X118737990Y-100718010D01*
X119888000Y-87376000D02*
X119888000Y-85090000D01*
X118737990Y-88526010D02*
X119888000Y-87376000D01*
X110077990Y-95623990D02*
X117348000Y-102894000D01*
X105027631Y-95623990D02*
X110077990Y-95623990D01*
X117348000Y-102894000D02*
X117348000Y-104394000D01*
X98044000Y-84074000D02*
X98444000Y-84074000D01*
X104394000Y-94996000D02*
X105027631Y-95623990D01*
X104113990Y-94710349D02*
X104394000Y-94996000D01*
X97644000Y-84074000D02*
X98044000Y-84074000D01*
X96012000Y-85706000D02*
X97644000Y-84074000D01*
X96488349Y-89630349D02*
X96012000Y-89154000D01*
X96493990Y-89630349D02*
X96488349Y-89630349D01*
X97167651Y-90304010D02*
X96493990Y-89630349D01*
X96012000Y-89154000D02*
X96012000Y-85706000D01*
X99702010Y-90304010D02*
X97167651Y-90304010D01*
X104394000Y-94996000D02*
X99702010Y-90304010D01*
X131437990Y-91344010D02*
X131437990Y-80398010D01*
X127508000Y-95274000D02*
X131437990Y-91344010D01*
X127508000Y-96774000D02*
X127508000Y-95274000D01*
X132588000Y-79248000D02*
X132588000Y-77470000D01*
X131437990Y-80398010D02*
X132588000Y-79248000D01*
X117348000Y-93472000D02*
X117348000Y-85090000D01*
X135636000Y-61214000D02*
X135636000Y-66548000D01*
X141478000Y-72390000D02*
X141478000Y-77470000D01*
X135636000Y-66548000D02*
X136906000Y-67818000D01*
X141478000Y-82150000D02*
X138938000Y-84690000D01*
X138938000Y-84690000D02*
X138938000Y-85090000D01*
X141478000Y-77470000D02*
X141478000Y-82150000D01*
X136906000Y-67818000D02*
X141478000Y-72390000D01*
X144018000Y-73660000D02*
X144018000Y-77470000D01*
X149098000Y-73660000D02*
X149098000Y-77470000D01*
X124968000Y-74791370D02*
X124968000Y-77470000D01*
X124968000Y-73660000D02*
X124968000Y-74791370D01*
X119888000Y-73660000D02*
X119888000Y-77470000D01*
X178188010Y-87994010D02*
X176784000Y-86590000D01*
X177038000Y-103021000D02*
X178188010Y-101870990D01*
X176784000Y-86590000D02*
X176784000Y-85090000D01*
X178188010Y-101870990D02*
X178188010Y-87994010D01*
X177038000Y-104521000D02*
X177038000Y-103021000D01*
X176240000Y-107986000D02*
X176240000Y-118110000D01*
X176240000Y-107579600D02*
X176240000Y-107986000D01*
X177038000Y-106781600D02*
X176240000Y-107579600D01*
X177038000Y-104521000D02*
X177038000Y-106781600D01*
X179324000Y-86590000D02*
X179324000Y-85090000D01*
X180728010Y-88018010D02*
X180594000Y-87884000D01*
X180728010Y-101870990D02*
X180728010Y-88018010D01*
X179578000Y-103021000D02*
X180728010Y-101870990D01*
X179578000Y-104521000D02*
X179578000Y-103021000D01*
X180594000Y-87884000D02*
X179324000Y-86590000D01*
X180728010Y-87994010D02*
X180594000Y-87884000D01*
X180200000Y-118110000D02*
X180200000Y-109106000D01*
X181864000Y-86590000D02*
X181864000Y-85090000D01*
X183268010Y-87994010D02*
X181864000Y-86590000D01*
X182118000Y-103021000D02*
X183268010Y-101870990D01*
X183268010Y-101870990D02*
X183268010Y-87994010D01*
X182118000Y-104521000D02*
X182118000Y-103021000D01*
X182118000Y-104521000D02*
X182118000Y-106857800D01*
X180200000Y-108775800D02*
X180200000Y-109106000D01*
X182118000Y-106857800D02*
X180200000Y-108775800D01*
X185808010Y-87994010D02*
X184404000Y-86590000D01*
X184404000Y-86590000D02*
X184404000Y-85090000D01*
X185808010Y-101870990D02*
X185808010Y-87994010D01*
X184658000Y-103021000D02*
X185808010Y-101870990D01*
X184658000Y-104521000D02*
X184658000Y-103021000D01*
X192024000Y-68350000D02*
X192024000Y-69850000D01*
X180713990Y-68973651D02*
X181887661Y-67799980D01*
X180713990Y-71762010D02*
X180713990Y-68973651D01*
X178173990Y-74302010D02*
X180713990Y-71762010D01*
X178173990Y-85966349D02*
X178173990Y-74302010D01*
X178823990Y-86616349D02*
X178173990Y-85966349D01*
X178823990Y-94646990D02*
X178823990Y-86616349D01*
X179578000Y-95401000D02*
X178823990Y-94646990D01*
X179578000Y-96901000D02*
X179578000Y-95401000D01*
X181887661Y-67799980D02*
X181887661Y-67794339D01*
X181887661Y-67794339D02*
X182626000Y-67056000D01*
X190754000Y-67056000D02*
X191516000Y-67818000D01*
X191516000Y-67818000D02*
X192024000Y-68350000D01*
X182626000Y-67056000D02*
X190754000Y-67056000D01*
X191473980Y-67799980D02*
X191516000Y-67818000D01*
X184160000Y-118110000D02*
X184160000Y-113528000D01*
X184160000Y-118110000D02*
X184160000Y-109972000D01*
X187198000Y-106934000D02*
X187198000Y-104521000D01*
X184160000Y-109972000D02*
X187198000Y-106934000D01*
X186944000Y-86590000D02*
X186944000Y-85090000D01*
X188348010Y-87994010D02*
X186944000Y-86590000D01*
X188348010Y-101870990D02*
X188348010Y-87994010D01*
X187198000Y-103021000D02*
X188348010Y-101870990D01*
X187198000Y-104521000D02*
X187198000Y-103021000D01*
X192278000Y-101346000D02*
X192278000Y-96901000D01*
X189484000Y-68350000D02*
X189484000Y-69850000D01*
X188952000Y-67818000D02*
X189484000Y-68350000D01*
X183253990Y-68460010D02*
X183896000Y-67818000D01*
X183896000Y-67818000D02*
X188952000Y-67818000D01*
X190634010Y-78287130D02*
X183253990Y-70907110D01*
X183253990Y-70907110D02*
X183253990Y-68460010D01*
X190634010Y-85966349D02*
X190634010Y-78287130D01*
X192278000Y-87610339D02*
X190634010Y-85966349D01*
X192278000Y-96901000D02*
X192278000Y-87610339D01*
X189484000Y-86590000D02*
X189484000Y-85090000D01*
X190888010Y-87994010D02*
X189484000Y-86590000D01*
X190888010Y-101870990D02*
X190888010Y-87994010D01*
X189738000Y-103021000D02*
X190888010Y-101870990D01*
X189738000Y-104521000D02*
X189738000Y-103021000D01*
X188120000Y-118110000D02*
X188120000Y-113886000D01*
X188120000Y-118110000D02*
X188120000Y-111092000D01*
X192278000Y-106934000D02*
X192278000Y-104521000D01*
X188120000Y-111092000D02*
X192278000Y-106934000D01*
X192278000Y-104521000D02*
X192278000Y-103021000D01*
X192278000Y-103021000D02*
X193373310Y-101925690D01*
X193428010Y-101870990D02*
X193373310Y-101925690D01*
X193428010Y-87994010D02*
X193428010Y-101870990D01*
X192024000Y-86590000D02*
X193428010Y-87994010D01*
X192024000Y-85090000D02*
X192024000Y-86590000D01*
X168320000Y-108249002D02*
X170807990Y-105761012D01*
X170807990Y-105761012D02*
X170807990Y-103258010D01*
X168320000Y-118110000D02*
X168320000Y-108249002D01*
X170807990Y-103258010D02*
X174244000Y-99822000D01*
X174244000Y-99822000D02*
X174244000Y-99822000D01*
X194818000Y-95401000D02*
X194818000Y-96901000D01*
X194792600Y-95375600D02*
X194818000Y-95401000D01*
X194062075Y-86792422D02*
X194792600Y-87536753D01*
X193174010Y-80120010D02*
X193174010Y-85907130D01*
X193174010Y-85907130D02*
X193176783Y-85907130D01*
X193176783Y-85907130D02*
X194062075Y-86792422D01*
X184404000Y-71350000D02*
X193174010Y-80120010D01*
X194792600Y-87536753D02*
X194792600Y-95375600D01*
X184404000Y-69850000D02*
X184404000Y-71350000D01*
X194564000Y-86590000D02*
X194564000Y-85090000D01*
X195968010Y-88018010D02*
X195834000Y-87884000D01*
X195968010Y-87994010D02*
X195834000Y-87884000D01*
X194818000Y-102870000D02*
X195968010Y-101719990D01*
X195968010Y-101719990D02*
X195968010Y-88018010D01*
X195834000Y-87884000D02*
X194564000Y-86590000D01*
X194818000Y-104521000D02*
X194818000Y-102870000D01*
X181864000Y-71350000D02*
X181864000Y-69850000D01*
X188094010Y-85966349D02*
X188094010Y-77580010D01*
X188094010Y-77580010D02*
X181864000Y-71350000D01*
X189738000Y-87610339D02*
X188094010Y-85966349D01*
X189738000Y-96901000D02*
X189738000Y-87610339D01*
X177038000Y-101346000D02*
X177038000Y-101346000D01*
X189738000Y-100285340D02*
X189738000Y-96901000D01*
X189738000Y-101346000D02*
X189738000Y-100285340D01*
X175739990Y-102644010D02*
X177038000Y-101346000D01*
X175739990Y-105869810D02*
X175739990Y-102644010D01*
X175031400Y-106578400D02*
X175739990Y-105869810D01*
X172280000Y-118110000D02*
X172280000Y-107805800D01*
X173507400Y-106578400D02*
X175031400Y-106578400D01*
X172280000Y-107805800D02*
X173507400Y-106578400D01*
X175633990Y-75040010D02*
X179324000Y-71350000D01*
X179324000Y-71350000D02*
X179324000Y-69850000D01*
X175633990Y-85966349D02*
X175633990Y-75040010D01*
X175887990Y-86220349D02*
X175633990Y-85966349D01*
X175887990Y-101631010D02*
X175887990Y-86220349D01*
X174498000Y-103021000D02*
X175887990Y-101631010D01*
X174498000Y-104521000D02*
X174498000Y-103021000D01*
D28*
X171704000Y-67002660D02*
X171704000Y-69850000D01*
X171704000Y-62865000D02*
X171709080Y-62870080D01*
X171704000Y-57785000D02*
X171704000Y-62865000D01*
X171704000Y-64006530D02*
X171704000Y-67002660D01*
X171709080Y-64001450D02*
X171704000Y-64006530D01*
X171709080Y-62870080D02*
X171709080Y-64001450D01*
D27*
X99822000Y-71374000D02*
X98044000Y-71374000D01*
X100972010Y-72524010D02*
X99822000Y-71374000D01*
X109057748Y-72524010D02*
X100972010Y-72524010D01*
X124472370Y-59163989D02*
X122417769Y-59163989D01*
X130042359Y-53594000D02*
X124472370Y-59163989D01*
X122417769Y-59163989D02*
X109057748Y-72524010D01*
X130556000Y-53594000D02*
X130042359Y-53594000D01*
X91948000Y-72874000D02*
X91948000Y-71374000D01*
X92988000Y-73914000D02*
X91948000Y-72874000D01*
X98044000Y-73914000D02*
X92988000Y-73914000D01*
X91948000Y-69874000D02*
X91948000Y-67056000D01*
X91948000Y-71374000D02*
X91948000Y-69874000D01*
X95554010Y-77443990D02*
X91466010Y-77443990D01*
X96544000Y-76454000D02*
X95554010Y-77443990D01*
X89916000Y-78994000D02*
X89408000Y-78994000D01*
X98044000Y-76454000D02*
X96544000Y-76454000D01*
X90797990Y-78112010D02*
X90170000Y-78740000D01*
X90797990Y-69207990D02*
X90797990Y-78112010D01*
X88646000Y-67056000D02*
X90797990Y-69207990D01*
X90170000Y-78740000D02*
X89916000Y-78994000D01*
X91466010Y-77443990D02*
X90170000Y-78740000D01*
X91132000Y-90678000D02*
X91186000Y-90624000D01*
X84836000Y-90678000D02*
X91132000Y-90678000D01*
X91186000Y-90624000D02*
X94942000Y-90624000D01*
X98044000Y-91694000D02*
X96512380Y-91694000D01*
X95442380Y-90624000D02*
X94942000Y-90624000D01*
X96512380Y-91694000D02*
X95442380Y-90624000D01*
X91186000Y-95504000D02*
X95250000Y-95504000D01*
X96520000Y-94234000D02*
X98044000Y-94234000D01*
X95250000Y-95504000D02*
X96520000Y-94234000D01*
X84836000Y-95504000D02*
X91186000Y-95504000D01*
X141771980Y-58658020D02*
X140716000Y-59714000D01*
X140716000Y-59714000D02*
X140716000Y-61214000D01*
X169527760Y-88392000D02*
X166370000Y-85234240D01*
X166370000Y-85234240D02*
X166370000Y-64262000D01*
X160766020Y-58658020D02*
X141771980Y-58658020D01*
X171450000Y-88392000D02*
X169527760Y-88392000D01*
X166370000Y-64262000D02*
X160766020Y-58658020D01*
X174498000Y-91440000D02*
X171450000Y-88392000D01*
X68826010Y-64215110D02*
X75407100Y-57634020D01*
X82804000Y-101854000D02*
X68826010Y-87876010D01*
X75407100Y-57634020D02*
X114276020Y-57634020D01*
X68826010Y-87876010D02*
X68826010Y-64215110D01*
X98044000Y-101854000D02*
X82804000Y-101854000D01*
X114276020Y-57634020D02*
X116332000Y-59690000D01*
X133096000Y-59714000D02*
X133096000Y-61214000D01*
X134651990Y-58158010D02*
X133096000Y-59714000D01*
X161028010Y-58158010D02*
X134651990Y-58158010D01*
X167132000Y-64262000D02*
X161028010Y-58158010D01*
X167132000Y-85289120D02*
X167132000Y-64262000D01*
X169476891Y-87634011D02*
X167132000Y-85289120D01*
X172470011Y-87634011D02*
X169476891Y-87634011D01*
X174498000Y-89662000D02*
X172470011Y-87634011D01*
X69326020Y-64422220D02*
X75582240Y-58166000D01*
X69326020Y-87668900D02*
X69326020Y-64422220D01*
X82361110Y-100703990D02*
X69326020Y-87668900D01*
X99687990Y-100703990D02*
X82361110Y-100703990D01*
X100076000Y-101092000D02*
X99687990Y-100703990D01*
X112522000Y-58166000D02*
X116078000Y-61722000D01*
X75582240Y-58166000D02*
X112522000Y-58166000D01*
X98044000Y-104394000D02*
X99568000Y-104394000D01*
X100076000Y-103886000D02*
X100076000Y-101092000D01*
X99568000Y-104394000D02*
X100076000Y-103886000D01*
X140716000Y-55094000D02*
X138660000Y-57150000D01*
X140716000Y-53594000D02*
X140716000Y-55094000D01*
X138660000Y-57150000D02*
X129540000Y-57150000D01*
X129540000Y-57150000D02*
X129540000Y-57150000D01*
X120800000Y-118110000D02*
X120800000Y-113896000D01*
X120800000Y-113896000D02*
X117810009Y-110906009D01*
X75199990Y-57134010D02*
X115554010Y-57134010D01*
X68326000Y-64008000D02*
X75199990Y-57134010D01*
X115554010Y-57134010D02*
X116332000Y-57912000D01*
X116332000Y-57912000D02*
X116332000Y-57912000D01*
X68326002Y-88083122D02*
X68326002Y-64262002D01*
X68326002Y-64262002D02*
X68326000Y-64262000D01*
X68326000Y-64262000D02*
X68326000Y-64008000D01*
X68326000Y-64516000D02*
X68326000Y-64262000D01*
X117810009Y-110906009D02*
X98460009Y-110906009D01*
X98460009Y-110906009D02*
X89908010Y-102354010D01*
X82596890Y-102354010D02*
X68326002Y-88083122D01*
X89908010Y-102354010D02*
X82596890Y-102354010D01*
X161798000Y-91186000D02*
X162052000Y-91440000D01*
X162306000Y-63246000D02*
X162306000Y-91186000D01*
X153670000Y-108458000D02*
X157734000Y-108458000D01*
X157734000Y-108458000D02*
X157734000Y-108458000D01*
X165532500Y-104826500D02*
X162611500Y-107747500D01*
D28*
X211328000Y-65278000D02*
X211328000Y-65278000D01*
X211328000Y-65278000D02*
X211328000Y-65278000D01*
X211328000Y-79248000D02*
X211328000Y-65278000D01*
X207264000Y-83312000D02*
X211328000Y-79248000D01*
X207264000Y-103124000D02*
X207264000Y-83312000D01*
X199644000Y-110744000D02*
X207264000Y-103124000D01*
D27*
X147066000Y-59944000D02*
X147066000Y-59944000D01*
X161036000Y-59944000D02*
X147066000Y-59944000D01*
X165608000Y-64516000D02*
X161036000Y-59944000D01*
X174498000Y-93218000D02*
X170180000Y-88900000D01*
X165608000Y-85179360D02*
X165608000Y-64516000D01*
X169328640Y-88900000D02*
X165608000Y-85179360D01*
X170180000Y-88900000D02*
X169328640Y-88900000D01*
X147060920Y-59949080D02*
X145973800Y-59949080D01*
X147066000Y-59944000D02*
X147060920Y-59949080D01*
D28*
X86868000Y-78994000D02*
X84328000Y-78994000D01*
X82228000Y-78994000D02*
X80958000Y-80264000D01*
X84328000Y-78994000D02*
X82228000Y-78994000D01*
X73660000Y-80264000D02*
X71882000Y-78486000D01*
X80958000Y-80264000D02*
X73660000Y-80264000D01*
X89408000Y-71374000D02*
X86868000Y-71374000D01*
X86868000Y-73874000D02*
X86868000Y-71374000D01*
X82550000Y-73914000D02*
X86828000Y-73914000D01*
X79248000Y-77216000D02*
X82550000Y-73914000D01*
X86828000Y-73914000D02*
X86868000Y-73874000D01*
X79248000Y-78486000D02*
X79248000Y-77216000D01*
M02*
